<svg width="140" height="70" viewBox="0 0 140 70" fill="none" xmlns="http://www.w3.org/2000/svg">
<path d="M139.17 1.79004H74.1499V67.87H139.17V1.79004Z" fill="#787878"/>
<path d="M34.86 69.68C54.1126 69.68 69.72 54.0816 69.72 34.84C69.72 15.5984 54.1126 0 34.86 0C15.6074 0 0 15.5984 0 34.84C0 54.0816 15.6074 69.68 34.86 69.68Z" fill="#787878"/>
<path d="M49.3299 43.2701C47.4775 46.4557 44.6269 48.9419 41.2191 50.3442C37.8113 51.7465 34.0364 51.9865 30.4784 51.0273C26.9205 50.068 23.7779 47.9628 21.5368 45.0376C19.2958 42.1124 18.0814 38.5301 18.0814 34.8451C18.0814 31.1601 19.2958 27.5778 21.5368 24.6526C23.7779 21.7273 26.9205 19.6222 30.4784 18.6629C34.0364 17.7037 37.8113 17.9437 41.2191 19.346C44.6269 20.7482 47.4775 23.2345 49.3299 26.4201L54.3299 23.5101C51.8395 19.2347 48.0098 15.899 43.4332 14.0188C38.8566 12.1385 33.788 11.8186 29.0113 13.1084C24.2345 14.3981 20.0158 17.2258 17.0076 21.1541C13.9993 25.0823 12.3691 29.8923 12.3691 34.8401C12.3691 39.7879 13.9993 44.5978 17.0076 48.5261C20.0158 52.4543 24.2345 55.282 29.0113 56.5718C33.788 57.8616 38.8566 57.5416 43.4332 55.6614C48.0098 53.7812 51.8395 50.4454 54.3299 46.1701L49.3299 43.2701Z" fill="white"/>
<path d="M127.33 13.3201H85.98V19.0801H103.7V56.3701H109.61V19.0801H127.33V13.3201Z" fill="white"/>
</svg>