<svg id="Layer_1" data-name="Layer 1" xmlns="http://www.w3.org/2000/svg" viewBox="0 0 220.33 69.69"><defs><style>.cls-1{fill:#787878;}.cls-2{fill:#fff;}</style></defs><title>ctv_logo</title><rect class="cls-1" x="74.15" y="1.79" width="65.02" height="66.08"/><ellipse class="cls-1" cx="34.86" cy="34.84" rx="34.86" ry="34.84"/><polygon class="cls-1" points="142.12 1.79 181.22 69.69 220.33 1.79 142.12 1.79"/><path class="cls-2" d="M146.33,226.25a16.76,16.76,0,1,1,0-16.85l5-2.91a22.51,22.51,0,1,0,0,22.66Z" transform="translate(-97 -182.98)"/><polygon class="cls-2" points="127.33 13.32 85.98 13.32 85.98 19.08 103.7 19.08 103.7 56.37 109.61 56.37 109.61 19.08 127.33 19.08 127.33 13.32"/><polygon class="cls-2" points="206.01 13.32 199.14 13.32 181.22 44.73 163.3 13.32 156.43 13.32 181.22 56.37 206.03 13.32 206.01 13.32"/></svg>