<svg width="670" height="108" viewBox="0 0 670 108" fill="none" xmlns="http://www.w3.org/2000/svg">
<path d="M35.86 90.68C55.1126 90.68 70.72 75.0816 70.72 55.84C70.72 36.5984 55.1126 21 35.86 21C16.6074 21 1 36.5984 1 55.84C1 75.0816 16.6074 90.68 35.86 90.68Z" fill="#EB0000" stroke="white" stroke-miterlimit="10"/>
<path d="M50.3299 64.2801C48.4769 67.4616 45.6273 69.944 42.2217 71.3433C38.8162 72.7426 35.0445 72.9808 31.4899 72.0211C27.9354 71.0614 24.7961 68.9573 22.5575 66.0342C20.3189 63.1111 19.1058 59.5319 19.1058 55.8501C19.1058 52.1683 20.3189 48.5891 22.5575 45.666C24.7961 42.7429 27.9354 40.6388 31.4899 39.6791C35.0445 38.7194 38.8162 38.9576 42.2217 40.3569C45.6273 41.7562 48.4769 44.2386 50.3299 47.4201L55.3299 44.5201C52.8395 40.2447 49.0098 36.909 44.4332 35.0288C39.8566 33.1485 34.788 32.8286 30.0113 34.1184C25.2345 35.4082 21.0158 38.2358 18.0076 42.1641C14.9993 46.0923 13.3691 50.9023 13.3691 55.8501C13.3691 60.7979 14.9993 65.6079 18.0076 69.5361C21.0158 73.4644 25.2345 76.2921 30.0113 77.5818C34.788 78.8716 39.8566 78.5517 44.4332 76.6714C49.0098 74.7912 52.8395 71.4555 55.3299 67.1801L50.3299 64.2801Z" fill="white"/>
<path d="M140.17 22.79H75.1499V88.87H140.17V22.79Z" fill="#005FFF"/>
<path d="M128.33 34.3201H86.98V40.0801H104.7V77.3701H110.61V40.0801H128.33V34.3201Z" fill="white"/>
<path d="M212.713 85.4512C206.693 88.9251 199.686 90.6621 191.689 90.6621C181.477 90.6621 173.421 87.5326 167.521 81.2734C161.652 75.0143 158.717 66.4642 158.717 55.623C158.717 44.6322 161.547 36.097 167.207 30.0176C172.867 23.9082 180.803 20.8535 191.016 20.8535C196.227 20.8535 203.07 21.9616 211.545 24.1777V36.8906H206.02L205.975 35.9922C205.945 35.0938 205.915 34.2103 205.885 33.3418C205.885 30.4069 204.522 28.1009 201.797 26.4238C199.072 24.7168 195.358 23.8633 190.656 23.8633C183.918 23.8633 178.542 26.7383 174.529 32.4883C170.516 38.2383 168.51 45.9199 168.51 55.5332C168.51 65.1764 170.861 72.7083 175.562 78.1289C180.264 83.5195 186.808 86.2148 195.193 86.2148C200.674 86.2148 206.514 84.5228 212.713 81.1387V85.4512ZM229.656 74.75L227 80.9062C225.958 83.3229 225.438 84.9375 225.438 85.75C225.438 86.625 226.781 87.0625 229.469 87.0625H229.969V89H217.969V87.0625L218.625 87.0312C220.417 86.9479 221.479 86.7292 221.812 86.375C222.167 86 223.042 84.1771 224.438 80.9062L240.719 42.1562H242.906L259.125 81.125C260.396 83.9167 261.292 85.5833 261.812 86.125C262.333 86.6458 263.354 86.9479 264.875 87.0312L265.594 87.0625V89H248.438V87.0625H249C251.917 87.0625 253.375 86.6458 253.375 85.8125C253.375 84.5833 252.938 82.9479 252.062 80.9062L249.469 74.75H229.656ZM230.688 72.2188H248.344L239.562 51.1562L230.688 72.2188ZM269.312 88.0625V79.1562H272.594L272.625 79.7188C272.688 80.7604 272.719 81.5417 272.719 82.0625C272.719 83.7083 273.396 84.9479 274.75 85.7812C276.958 87.1562 279.396 87.8438 282.062 87.8438C284.833 87.8438 287 87.0625 288.562 85.5C290.125 83.9167 290.906 81.7396 290.906 78.9688C290.906 76.6354 290.406 74.7812 289.406 73.4062C288.406 72.0312 286.458 70.5312 283.562 68.9062L280.281 67.0312C273.198 63.0312 269.656 58.6667 269.656 53.9375C269.656 50.375 270.927 47.4271 273.469 45.0938C276.031 42.7604 279.24 41.5938 283.094 41.5938C284.76 41.5938 286.562 41.7604 288.5 42.0938C290.458 42.4062 292.552 42.8958 294.781 43.5625V51.7812H291.312L291.281 51.25C291.198 50.125 291.156 49.3021 291.156 48.7812C291.156 47.0312 290.531 45.75 289.281 44.9375C288.031 44.1042 286.073 43.6875 283.406 43.6875C281.177 43.6875 279.365 44.4271 277.969 45.9062C276.594 47.3646 275.906 49.2917 275.906 51.6875C275.906 53.7292 276.385 55.4167 277.344 56.75C278.302 58.0833 280.031 59.4583 282.531 60.875L285.812 62.75C290.354 65.3333 293.417 67.5833 295 69.5C296.583 71.4167 297.375 73.8229 297.375 76.7188C297.375 80.5729 295.938 83.7812 293.062 86.3438C290.208 88.8854 286.635 90.1562 282.344 90.1562C279.844 90.1562 277.5 89.9792 275.312 89.625C273.146 89.2708 271.146 88.75 269.312 88.0625ZM319.75 87.0625V89H301.625V87.0625L302.219 87.0312C304.74 86.8646 306.229 86.5104 306.688 85.9688C307.167 85.4062 307.406 83.7188 307.406 80.9062V50.8438C307.406 48.0104 307.167 46.3229 306.688 45.7812C306.229 45.2396 304.74 44.8854 302.219 44.7188L301.625 44.6562V42.75H319.75V44.6562L319.156 44.7188C316.615 44.8854 315.115 45.2396 314.656 45.7812C314.198 46.3229 313.969 48.0104 313.969 50.8438V80.9062C313.969 83.7188 314.198 85.4062 314.656 85.9688C315.115 86.5104 316.615 86.8646 319.156 87.0312L319.75 87.0625ZM359.844 89.625L331.156 50.875V80.9062C331.156 83.7396 331.385 85.4271 331.844 85.9688C332.302 86.4896 333.812 86.8438 336.375 87.0312L336.938 87.0625V89H322.469V87.0625L323.031 87.0312C325.594 86.8438 327.104 86.4896 327.562 85.9688C328.021 85.4271 328.25 83.7396 328.25 80.9062V50.8438C328.25 47.9896 328.021 46.3021 327.562 45.7812C327.104 45.2396 325.594 44.8854 323.031 44.7188L322.438 44.6562V42.75H332.844L359.219 78.6562V50.8438C359.219 48.0104 358.979 46.3229 358.5 45.7812C358.042 45.2396 356.542 44.8854 354 44.7188L353.438 44.6562V42.75H367.844V44.6562L367.25 44.7188C364.708 44.8854 363.208 45.2396 362.75 45.7812C362.292 46.3229 362.062 48.0104 362.062 50.8438V89.625H359.844ZM394.094 90.1562C387.406 90.1562 382.135 87.9896 378.281 83.6562C374.427 79.3229 372.5 73.3958 372.5 65.875C372.5 58.3542 374.427 52.4271 378.281 48.0938C382.135 43.7604 387.406 41.5938 394.094 41.5938C400.781 41.5938 406.052 43.7604 409.906 48.0938C413.76 52.4271 415.688 58.3542 415.688 65.875C415.688 73.3958 413.76 79.3229 409.906 83.6562C406.052 87.9896 400.781 90.1562 394.094 90.1562ZM394.094 88.0312C398.677 88.0312 402.26 86.0729 404.844 82.1562C407.448 78.2396 408.75 72.8125 408.75 65.875C408.75 58.9375 407.448 53.5104 404.844 49.5938C402.26 45.6562 398.677 43.6875 394.094 43.6875C389.51 43.6875 385.917 45.6562 383.312 49.5938C380.729 53.5104 379.438 58.9375 379.438 65.875C379.438 72.8125 380.729 78.2396 383.312 82.1562C385.917 86.0729 389.51 88.0312 394.094 88.0312ZM456.375 45.25H449C447.271 45.25 445.76 45.3438 444.469 45.5312C443.615 45.6562 443.188 46.4271 443.188 47.8438C443.188 48.9062 443.167 49.8229 443.125 50.5938L443.094 51.2188H439.812V42.75H479.531V51.2188H476.25L476.219 50.5938C476.156 49.8229 476.125 48.9062 476.125 47.8438C476.125 46.4271 475.708 45.6562 474.875 45.5312C473.562 45.3438 472.052 45.25 470.344 45.25H462.938V80.9062C462.938 83.6771 463.188 85.3646 463.688 85.9688C464.188 86.5521 465.677 86.9062 468.156 87.0312L469.5 87.0625V89H449.844V87.0625L451.188 87.0312C453.667 86.9062 455.146 86.5521 455.625 85.9688C456.125 85.3646 456.375 83.6771 456.375 80.9062V45.25ZM494.531 68.6562V80.9062C494.531 83.6979 494.74 85.3854 495.156 85.9688C495.594 86.5312 496.865 86.8854 498.969 87.0312L499.562 87.0625V89H482.25V87.0625L482.844 87.0312C485.365 86.8646 486.854 86.5104 487.312 85.9688C487.792 85.4062 488.031 83.7188 488.031 80.9062V50.8438C488.031 48.0104 487.792 46.3229 487.312 45.7812C486.854 45.2396 485.365 44.8854 482.844 44.7188L482.25 44.6562V42.75H493.375L499 42.5938L501.5 42.5312C511.062 42.5312 515.844 46.4271 515.844 54.2188C515.844 60.6979 512.656 65.0312 506.281 67.2188L515.344 80.8438C517.344 83.7188 518.646 85.4375 519.25 86C519.854 86.5625 520.646 86.8646 521.625 86.9062C521.917 86.9479 522.615 86.9896 523.719 87.0312L524.344 87.0625V89H512.562L499.938 68.6562H494.531ZM494.594 66.5312H496.906C505.073 66.5312 509.156 62.6667 509.156 54.9375C509.156 51.2708 508.385 48.6771 506.844 47.1562C505.323 45.6146 502.719 44.8438 499.031 44.8438H494.594V66.5312ZM543.812 87.0625V89H525.688V87.0625L526.281 87.0312C528.802 86.8646 530.292 86.5104 530.75 85.9688C531.229 85.4062 531.469 83.7188 531.469 80.9062V50.8438C531.469 48.0104 531.229 46.3229 530.75 45.7812C530.292 45.2396 528.802 44.8854 526.281 44.7188L525.688 44.6562V42.75H543.812V44.6562L543.219 44.7188C540.677 44.8854 539.177 45.2396 538.719 45.7812C538.26 46.3229 538.031 48.0104 538.031 50.8438V80.9062C538.031 83.7188 538.26 85.4062 538.719 85.9688C539.177 86.5104 540.677 86.8646 543.219 87.0312L543.812 87.0625ZM586 86.5312C581.812 88.9479 576.938 90.1562 571.375 90.1562C564.271 90.1562 558.667 87.9792 554.562 83.625C550.479 79.2708 548.438 73.3229 548.438 65.7812C548.438 58.1354 550.406 52.1979 554.344 47.9688C558.281 43.7188 563.802 41.5938 570.906 41.5938C574.531 41.5938 579.292 42.3646 585.188 43.9062V52.75H581.344L581.312 52.125C581.292 51.5 581.271 50.8854 581.25 50.2812C581.25 48.2396 580.302 46.6354 578.406 45.4688C576.51 44.2812 573.927 43.6875 570.656 43.6875C565.969 43.6875 562.229 45.6875 559.438 49.6875C556.646 53.6875 555.25 59.0312 555.25 65.7188C555.25 72.4271 556.885 77.6667 560.156 81.4375C563.427 85.1875 567.979 87.0625 573.812 87.0625C577.625 87.0625 581.688 85.8854 586 83.5312V86.5312ZM603.344 65.625V80.9062C603.344 83.6979 603.552 85.3854 603.969 85.9688C604.385 86.5312 605.656 86.8854 607.781 87.0312L608.344 87.0625V89H591V87.0625L591.594 87.0312C594.115 86.8646 595.604 86.5104 596.062 85.9688C596.542 85.4062 596.781 83.7188 596.781 80.9062V50.8438C596.781 48.0104 596.542 46.3229 596.062 45.7812C595.604 45.2396 594.115 44.8854 591.594 44.7188L591 44.6562V42.75H609.125V44.6562L608.531 44.7188C605.99 44.8854 604.49 45.2396 604.031 45.7812C603.573 46.3229 603.344 48.0104 603.344 50.8438V65.4375L617.344 50.8438C620.406 47.4271 621.938 45.5521 621.938 45.2188C621.938 44.8438 620.427 44.6562 617.406 44.6562H616.844V42.75H631.094V44.6562L630.562 44.7188C628.125 44.8438 626.625 45.0729 626.062 45.4062C625.521 45.7396 623.625 47.5625 620.375 50.875L608.562 62.9062L624.75 80.9375C627.5 83.8958 629.26 85.625 630.031 86.125C630.823 86.6042 632.25 86.9062 634.312 87.0312L634.969 87.0625V89H616.062V87.0625H616.625C619.167 87.0625 620.458 86.8125 620.5 86.3125C620.542 85.6458 619.25 83.8125 616.625 80.8125L603.344 65.625ZM638.688 88.0625V79.1562H641.969L642 79.7188C642.062 80.7604 642.094 81.5417 642.094 82.0625C642.094 83.7083 642.771 84.9479 644.125 85.7812C646.333 87.1562 648.771 87.8438 651.438 87.8438C654.208 87.8438 656.375 87.0625 657.938 85.5C659.5 83.9167 660.281 81.7396 660.281 78.9688C660.281 76.6354 659.781 74.7812 658.781 73.4062C657.781 72.0312 655.833 70.5312 652.938 68.9062L649.656 67.0312C642.573 63.0312 639.031 58.6667 639.031 53.9375C639.031 50.375 640.302 47.4271 642.844 45.0938C645.406 42.7604 648.615 41.5938 652.469 41.5938C654.135 41.5938 655.938 41.7604 657.875 42.0938C659.833 42.4062 661.927 42.8958 664.156 43.5625V51.7812H660.688L660.656 51.25C660.573 50.125 660.531 49.3021 660.531 48.7812C660.531 47.0312 659.906 45.75 658.656 44.9375C657.406 44.1042 655.448 43.6875 652.781 43.6875C650.552 43.6875 648.74 44.4271 647.344 45.9062C645.969 47.3646 645.281 49.2917 645.281 51.6875C645.281 53.7292 645.76 55.4167 646.719 56.75C647.677 58.0833 649.406 59.4583 651.906 60.875L655.188 62.75C659.729 65.3333 662.792 67.5833 664.375 69.5C665.958 71.4167 666.75 73.8229 666.75 76.7188C666.75 80.5729 665.312 83.7812 662.438 86.3438C659.583 88.8854 656.01 90.1562 651.719 90.1562C649.219 90.1562 646.875 89.9792 644.688 89.625C642.521 89.2708 640.521 88.75 638.688 88.0625Z" fill="#003662"/>
</svg>
