<svg width="216" height="19" viewBox="0 0 216 19" fill="none" xmlns="http://www.w3.org/2000/svg">
<path d="M12.1142 9.49926C12.1142 11.2612 10.686 12.6894 8.9243 12.6894C7.16261 12.6894 5.73438 11.2612 5.73438 9.49926C5.73438 7.73757 7.16261 6.30957 8.9243 6.30957C10.686 6.30957 12.1142 7.73757 12.1142 9.49926Z" fill="white"/>
<path d="M5.24255 12.6894C3.47947 12.6894 2.05078 11.2613 2.05078 9.49989C2.05078 7.73797 3.47947 6.30835 5.24232 6.30835L5.24255 12.6894Z" fill="white"/>
<path d="M12.6091 16.2086L12.6098 13.1816L15.6382 13.183C15.6382 14.8563 14.2817 16.2086 12.6091 16.2086Z" fill="white"/>
<path d="M5.24239 2.78687V5.81756L2.21008 5.81802C2.21008 4.14425 3.56816 2.78687 5.24239 2.78687Z" fill="white"/>
<path d="M5.24254 16.2105V13.1816L2.21069 13.183C2.21069 14.8561 3.56739 16.2105 5.24254 16.2105Z" fill="white"/>
<path d="M16.2951 12.2409L16.2935 6.75854C17.2274 7.3147 17.853 8.33401 17.853 9.49985C17.853 10.6652 17.2274 11.6836 16.2951 12.2409Z" fill="white"/>
<path d="M6.18433 2.13095L11.6669 2.13187C11.1106 1.19795 10.0924 0.573486 8.92633 0.573486C7.76048 0.573486 6.74071 1.19795 6.18433 2.13095Z" fill="white"/>
<path d="M11.6266 16.8679L6.14307 16.8672C6.69968 17.8006 7.71853 18.4265 8.88484 18.4265C10.0507 18.4265 11.0695 17.8013 11.6266 16.8679Z" fill="white"/>
<path d="M12.1154 13.1831C12.1154 14.9455 10.6876 16.3733 8.92614 16.3733C7.16376 16.3733 5.73438 14.9455 5.73438 13.1831H12.1154Z" fill="white"/>
<path d="M12.6099 12.6894C14.3716 12.6894 15.8009 11.2613 15.8009 9.49989C15.8009 7.73797 14.3716 6.30835 12.6099 6.30835V12.6894Z" fill="white"/>
<path d="M12.1154 5.82128C12.1154 4.05959 10.6876 2.63159 8.92614 2.63159C7.16376 2.63159 5.73438 4.05959 5.73438 5.82128H12.1154Z" fill="white"/>
<path d="M1.55723 12.2409L1.55862 6.75854C0.624461 7.3147 0 8.33401 0 9.49985C0 10.6652 0.624461 11.6836 1.55723 12.2409Z" fill="white"/>
<path d="M15.6384 5.81933L12.6098 5.81772L12.6091 2.78979C14.282 2.78979 15.6384 4.14556 15.6384 5.81933Z" fill="white"/>
<path d="M28.933 9.72C28.933 8.376 29.149 7.176 29.581 6.12C30.029 5.064 30.629 4.168 31.381 3.432C32.149 2.696 33.021 2.136 33.997 1.752C34.989 1.352 36.037 1.152 37.141 1.152C38.181 1.152 39.133 1.296 39.997 1.584C40.877 1.856 41.733 2.272 42.565 2.832L40.477 5.904C39.981 5.568 39.445 5.296 38.869 5.088C38.293 4.864 37.677 4.752 37.021 4.752C36.253 4.752 35.549 4.936 34.909 5.304C34.285 5.672 33.781 6.224 33.397 6.96C33.029 7.696 32.845 8.616 32.845 9.72C32.845 10.824 33.029 11.744 33.397 12.48C33.781 13.216 34.293 13.768 34.933 14.136C35.573 14.504 36.277 14.688 37.045 14.688C37.701 14.688 38.309 14.568 38.869 14.328C39.445 14.088 39.981 13.768 40.477 13.368L42.685 16.344C41.869 16.984 41.021 17.472 40.141 17.808C39.261 18.128 38.277 18.288 37.189 18.288C36.085 18.288 35.029 18.096 34.021 17.712C33.029 17.312 32.149 16.744 31.381 16.008C30.629 15.272 30.029 14.376 29.581 13.32C29.149 12.264 28.933 11.064 28.933 9.72ZM43.5327 18L49.5567 1.44H53.2527L59.2767 18H55.1967L53.8047 13.824L55.8447 14.736H46.8687L48.8367 14.016L47.5167 18H43.5327ZM49.0527 13.32L47.8767 11.688H54.8367L53.6607 13.32L50.8047 4.776H51.9087L49.0527 13.32ZM59.8883 16.224L61.7123 13.032C62.4163 13.608 63.2323 14.08 64.1603 14.448C65.0883 14.8 65.9923 14.976 66.8723 14.976C67.4003 14.976 67.8403 14.912 68.1923 14.784C68.5603 14.656 68.8403 14.488 69.0323 14.28C69.2243 14.072 69.3203 13.84 69.3203 13.584C69.3203 13.36 69.2323 13.128 69.0563 12.888C68.8963 12.648 68.5923 12.4 68.1443 12.144C67.7123 11.888 67.0723 11.624 66.2243 11.352C64.9123 10.92 63.8483 10.432 63.0323 9.888C62.2323 9.328 61.6483 8.72 61.2803 8.064C60.9123 7.408 60.7283 6.72 60.7283 6C60.7283 5.12 60.9603 4.312 61.4243 3.576C61.9043 2.84 62.6083 2.256 63.5363 1.824C64.4643 1.376 65.6083 1.152 66.9683 1.152C68.0563 1.152 69.1363 1.328 70.2083 1.68C71.2963 2.016 72.2083 2.44 72.9443 2.952L71.2403 6C70.5843 5.536 69.8643 5.16 69.0803 4.872C68.2963 4.568 67.4883 4.416 66.6563 4.416C65.9843 4.416 65.4723 4.544 65.1203 4.8C64.7683 5.056 64.5923 5.352 64.5923 5.688C64.5923 5.928 64.6803 6.16 64.8563 6.384C65.0483 6.608 65.3603 6.832 65.7923 7.056C66.2403 7.28 66.8403 7.52 67.5923 7.776C68.9523 8.224 70.0483 8.728 70.8803 9.288C71.7123 9.832 72.3203 10.44 72.7043 11.112C73.0883 11.768 73.2803 12.504 73.2803 13.32C73.2803 14.2 73.0323 15.016 72.5363 15.768C72.0403 16.52 71.2883 17.128 70.2803 17.592C69.2723 18.056 68.0003 18.288 66.4643 18.288C65.7123 18.288 64.9603 18.2 64.2083 18.024C63.4563 17.864 62.7203 17.632 62.0003 17.328C61.2803 17.024 60.5763 16.656 59.8883 16.224ZM75.913 18V15.12H78.073V4.32H75.913V1.44H84.073V4.32H81.913V15.12H84.073V18H75.913ZM87.6665 18V1.44H92.5865L99.1145 14.712L98.3465 14.88V1.44H101.802V18H97.1465L90.3545 4.176L91.1225 4.008V18H87.6665ZM104.917 9.72C104.917 8.376 105.117 7.176 105.517 6.12C105.933 5.064 106.501 4.168 107.221 3.432C107.941 2.696 108.773 2.136 109.717 1.752C110.677 1.352 111.693 1.152 112.765 1.152C113.853 1.152 114.869 1.352 115.813 1.752C116.757 2.136 117.589 2.696 118.309 3.432C119.029 4.168 119.589 5.064 119.989 6.12C120.405 7.176 120.613 8.376 120.613 9.72C120.613 11.064 120.405 12.264 119.989 13.32C119.589 14.376 119.029 15.272 118.309 16.008C117.589 16.744 116.757 17.312 115.813 17.712C114.869 18.096 113.861 18.288 112.789 18.288C111.701 18.288 110.677 18.096 109.717 17.712C108.773 17.312 107.941 16.744 107.221 16.008C106.501 15.272 105.933 14.376 105.517 13.32C105.117 12.264 104.917 11.064 104.917 9.72ZM108.829 9.72C108.829 10.584 108.925 11.336 109.117 11.976C109.325 12.616 109.605 13.152 109.957 13.584C110.309 14.016 110.725 14.336 111.205 14.544C111.685 14.752 112.205 14.856 112.765 14.856C113.325 14.856 113.845 14.752 114.325 14.544C114.805 14.336 115.221 14.016 115.573 13.584C115.925 13.152 116.197 12.616 116.389 11.976C116.597 11.336 116.701 10.584 116.701 9.72C116.701 8.856 116.597 8.104 116.389 7.464C116.197 6.824 115.925 6.288 115.573 5.856C115.221 5.424 114.805 5.104 114.325 4.896C113.845 4.688 113.325 4.584 112.765 4.584C112.205 4.584 111.685 4.688 111.205 4.896C110.725 5.104 110.309 5.424 109.957 5.856C109.605 6.288 109.325 6.824 109.117 7.464C108.925 8.104 108.829 8.856 108.829 9.72ZM128.297 4.8V1.44H141.161V4.8H136.649V18H132.809V4.8H128.297ZM143.799 18V1.44H150.087C151.255 1.44 152.303 1.664 153.231 2.112C154.159 2.544 154.895 3.176 155.439 4.008C155.983 4.824 156.255 5.808 156.255 6.96C156.255 8.096 155.959 9.064 155.367 9.864C154.791 10.664 154.023 11.272 153.063 11.688L156.735 18H152.487L149.487 12.24H147.639V18H143.799ZM147.639 9.12H149.727C150.511 9.12 151.143 8.944 151.623 8.592C152.103 8.24 152.343 7.696 152.343 6.96C152.343 6.224 152.103 5.68 151.623 5.328C151.143 4.976 150.511 4.8 149.727 4.8H147.639V9.12ZM159.14 18V15.12H161.3V4.32H159.14V1.44H167.3V4.32H165.14V15.12H167.3V18H159.14ZM169.933 9.72C169.933 8.376 170.149 7.176 170.581 6.12C171.029 5.064 171.629 4.168 172.381 3.432C173.149 2.696 174.021 2.136 174.997 1.752C175.989 1.352 177.037 1.152 178.141 1.152C179.181 1.152 180.133 1.296 180.997 1.584C181.877 1.856 182.733 2.272 183.565 2.832L181.477 5.904C180.981 5.568 180.445 5.296 179.869 5.088C179.293 4.864 178.677 4.752 178.021 4.752C177.253 4.752 176.549 4.936 175.909 5.304C175.285 5.672 174.781 6.224 174.397 6.96C174.029 7.696 173.845 8.616 173.845 9.72C173.845 10.824 174.029 11.744 174.397 12.48C174.781 13.216 175.293 13.768 175.933 14.136C176.573 14.504 177.277 14.688 178.045 14.688C178.701 14.688 179.309 14.568 179.869 14.328C180.445 14.088 180.981 13.768 181.477 13.368L183.685 16.344C182.869 16.984 182.021 17.472 181.141 17.808C180.261 18.128 179.277 18.288 178.189 18.288C177.085 18.288 176.029 18.096 175.021 17.712C174.029 17.312 173.149 16.744 172.381 16.008C171.629 15.272 171.029 14.376 170.581 13.32C170.149 12.264 169.933 11.064 169.933 9.72ZM186.573 18V1.44H190.413V8.304L195.645 1.44H200.421L194.373 8.616L200.733 18H196.077L191.949 11.52L190.413 13.32V18H186.573ZM201.099 16.224L202.923 13.032C203.627 13.608 204.443 14.08 205.371 14.448C206.299 14.8 207.203 14.976 208.083 14.976C208.611 14.976 209.051 14.912 209.403 14.784C209.771 14.656 210.051 14.488 210.243 14.28C210.435 14.072 210.531 13.84 210.531 13.584C210.531 13.36 210.443 13.128 210.267 12.888C210.107 12.648 209.803 12.4 209.355 12.144C208.923 11.888 208.283 11.624 207.435 11.352C206.123 10.92 205.059 10.432 204.243 9.888C203.443 9.328 202.859 8.72 202.491 8.064C202.123 7.408 201.939 6.72 201.939 6C201.939 5.12 202.171 4.312 202.635 3.576C203.115 2.84 203.819 2.256 204.747 1.824C205.675 1.376 206.819 1.152 208.179 1.152C209.267 1.152 210.347 1.328 211.419 1.68C212.507 2.016 213.419 2.44 214.155 2.952L212.451 6C211.795 5.536 211.075 5.16 210.291 4.872C209.507 4.568 208.699 4.416 207.867 4.416C207.195 4.416 206.683 4.544 206.331 4.8C205.979 5.056 205.803 5.352 205.803 5.688C205.803 5.928 205.891 6.16 206.067 6.384C206.259 6.608 206.571 6.832 207.003 7.056C207.451 7.28 208.051 7.52 208.803 7.776C210.163 8.224 211.259 8.728 212.091 9.288C212.923 9.832 213.531 10.44 213.915 11.112C214.299 11.768 214.491 12.504 214.491 13.32C214.491 14.2 214.243 15.016 213.747 15.768C213.251 16.52 212.499 17.128 211.491 17.592C210.483 18.056 209.211 18.288 207.675 18.288C206.923 18.288 206.171 18.2 205.419 18.024C204.667 17.864 203.931 17.632 203.211 17.328C202.491 17.024 201.787 16.656 201.099 16.224Z" fill="white"/>
</svg>
