<svg width="216" height="19" viewBox="0 0 216 19" fill="none" xmlns="http://www.w3.org/2000/svg">
<circle cx="9" cy="9.5" r="8.25" stroke="#D8232A" stroke-width="1.5"/>
<path d="M3.405 9.895C3.405 9.391 3.486 8.941 3.648 8.545C3.816 8.149 4.041 7.813 4.323 7.537C4.611 7.261 4.938 7.051 5.304 6.907C5.676 6.757 6.069 6.682 6.483 6.682C6.873 6.682 7.23 6.736 7.554 6.844C7.884 6.946 8.205 7.102 8.517 7.312L7.734 8.464C7.548 8.338 7.347 8.236 7.131 8.158C6.915 8.074 6.684 8.032 6.438 8.032C6.15 8.032 5.886 8.101 5.646 8.239C5.412 8.377 5.223 8.584 5.079 8.86C4.941 9.136 4.872 9.481 4.872 9.895C4.872 10.309 4.941 10.654 5.079 10.93C5.223 11.206 5.415 11.413 5.655 11.551C5.895 11.689 6.159 11.758 6.447 11.758C6.693 11.758 6.921 11.713 7.131 11.623C7.347 11.533 7.548 11.413 7.734 11.263L8.562 12.379C8.256 12.619 7.938 12.802 7.608 12.928C7.278 13.048 6.909 13.108 6.501 13.108C6.087 13.108 5.691 13.036 5.313 12.892C4.941 12.742 4.611 12.529 4.323 12.253C4.041 11.977 3.816 11.641 3.648 11.245C3.486 10.849 3.405 10.399 3.405 9.895ZM9.10488 8.05V6.79H13.9289V8.05H12.2369V13H10.7969V8.05H9.10488Z" fill="#D8232A"/>
<path d="M29.08 9.72C29.08 8.376 29.296 7.176 29.728 6.12C30.176 5.064 30.776 4.168 31.528 3.432C32.296 2.696 33.168 2.136 34.144 1.752C35.136 1.352 36.184 1.152 37.288 1.152C38.328 1.152 39.28 1.296 40.144 1.584C41.024 1.856 41.88 2.272 42.712 2.832L40.624 5.904C40.128 5.568 39.592 5.296 39.016 5.088C38.44 4.864 37.824 4.752 37.168 4.752C36.4 4.752 35.696 4.936 35.056 5.304C34.432 5.672 33.928 6.224 33.544 6.96C33.176 7.696 32.992 8.616 32.992 9.72C32.992 10.824 33.176 11.744 33.544 12.48C33.928 13.216 34.44 13.768 35.08 14.136C35.72 14.504 36.424 14.688 37.192 14.688C37.848 14.688 38.456 14.568 39.016 14.328C39.592 14.088 40.128 13.768 40.624 13.368L42.832 16.344C42.016 16.984 41.168 17.472 40.288 17.808C39.408 18.128 38.424 18.288 37.336 18.288C36.232 18.288 35.176 18.096 34.168 17.712C33.176 17.312 32.296 16.744 31.528 16.008C30.776 15.272 30.176 14.376 29.728 13.32C29.296 12.264 29.08 11.064 29.08 9.72ZM43.6797 18L49.7037 1.44H53.3997L59.4237 18H55.3437L53.9517 13.824L55.9917 14.736H47.0157L48.9837 14.016L47.6637 18H43.6797ZM49.1997 13.32L48.0237 11.688H54.9837L53.8077 13.32L50.9517 4.776H52.0557L49.1997 13.32ZM60.0353 16.224L61.8593 13.032C62.5633 13.608 63.3793 14.08 64.3073 14.448C65.2353 14.8 66.1393 14.976 67.0193 14.976C67.5473 14.976 67.9873 14.912 68.3393 14.784C68.7073 14.656 68.9873 14.488 69.1793 14.28C69.3713 14.072 69.4673 13.84 69.4673 13.584C69.4673 13.36 69.3793 13.128 69.2033 12.888C69.0433 12.648 68.7393 12.4 68.2913 12.144C67.8593 11.888 67.2193 11.624 66.3713 11.352C65.0593 10.92 63.9953 10.432 63.1793 9.888C62.3793 9.328 61.7953 8.72 61.4273 8.064C61.0593 7.408 60.8753 6.72 60.8753 6C60.8753 5.12 61.1073 4.312 61.5713 3.576C62.0513 2.84 62.7553 2.256 63.6833 1.824C64.6113 1.376 65.7553 1.152 67.1153 1.152C68.2033 1.152 69.2833 1.328 70.3553 1.68C71.4433 2.016 72.3553 2.44 73.0913 2.952L71.3873 6C70.7313 5.536 70.0113 5.16 69.2273 4.872C68.4433 4.568 67.6353 4.416 66.8033 4.416C66.1313 4.416 65.6193 4.544 65.2673 4.8C64.9153 5.056 64.7393 5.352 64.7393 5.688C64.7393 5.928 64.8273 6.16 65.0033 6.384C65.1953 6.608 65.5073 6.832 65.9393 7.056C66.3873 7.28 66.9873 7.52 67.7393 7.776C69.0993 8.224 70.1953 8.728 71.0273 9.288C71.8593 9.832 72.4673 10.44 72.8513 11.112C73.2353 11.768 73.4273 12.504 73.4273 13.32C73.4273 14.2 73.1793 15.016 72.6833 15.768C72.1873 16.52 71.4353 17.128 70.4273 17.592C69.4193 18.056 68.1473 18.288 66.6113 18.288C65.8593 18.288 65.1073 18.2 64.3553 18.024C63.6033 17.864 62.8673 17.632 62.1473 17.328C61.4273 17.024 60.7233 16.656 60.0353 16.224ZM76.06 18V15.12H78.22V4.32H76.06V1.44H84.22V4.32H82.06V15.12H84.22V18H76.06ZM87.8134 18V1.44H92.7334L99.2614 14.712L98.4934 14.88V1.44H101.949V18H97.2934L90.5014 4.176L91.2694 4.008V18H87.8134ZM105.064 9.72C105.064 8.376 105.264 7.176 105.664 6.12C106.08 5.064 106.648 4.168 107.368 3.432C108.088 2.696 108.92 2.136 109.864 1.752C110.824 1.352 111.84 1.152 112.912 1.152C114 1.152 115.016 1.352 115.96 1.752C116.904 2.136 117.736 2.696 118.456 3.432C119.176 4.168 119.736 5.064 120.136 6.12C120.552 7.176 120.76 8.376 120.76 9.72C120.76 11.064 120.552 12.264 120.136 13.32C119.736 14.376 119.176 15.272 118.456 16.008C117.736 16.744 116.904 17.312 115.96 17.712C115.016 18.096 114.008 18.288 112.936 18.288C111.848 18.288 110.824 18.096 109.864 17.712C108.92 17.312 108.088 16.744 107.368 16.008C106.648 15.272 106.08 14.376 105.664 13.32C105.264 12.264 105.064 11.064 105.064 9.72ZM108.976 9.72C108.976 10.584 109.072 11.336 109.264 11.976C109.472 12.616 109.752 13.152 110.104 13.584C110.456 14.016 110.872 14.336 111.352 14.544C111.832 14.752 112.352 14.856 112.912 14.856C113.472 14.856 113.992 14.752 114.472 14.544C114.952 14.336 115.368 14.016 115.72 13.584C116.072 13.152 116.344 12.616 116.536 11.976C116.744 11.336 116.848 10.584 116.848 9.72C116.848 8.856 116.744 8.104 116.536 7.464C116.344 6.824 116.072 6.288 115.72 5.856C115.368 5.424 114.952 5.104 114.472 4.896C113.992 4.688 113.472 4.584 112.912 4.584C112.352 4.584 111.832 4.688 111.352 4.896C110.872 5.104 110.456 5.424 110.104 5.856C109.752 6.288 109.472 6.824 109.264 7.464C109.072 8.104 108.976 8.856 108.976 9.72ZM128.444 4.8V1.44H141.308V4.8H136.796V18H132.956V4.8H128.444ZM143.946 18V1.44H150.234C151.402 1.44 152.45 1.664 153.378 2.112C154.306 2.544 155.042 3.176 155.586 4.008C156.13 4.824 156.402 5.808 156.402 6.96C156.402 8.096 156.106 9.064 155.514 9.864C154.938 10.664 154.17 11.272 153.21 11.688L156.882 18H152.634L149.634 12.24H147.786V18H143.946ZM147.786 9.12H149.874C150.658 9.12 151.29 8.944 151.77 8.592C152.25 8.24 152.49 7.696 152.49 6.96C152.49 6.224 152.25 5.68 151.77 5.328C151.29 4.976 150.658 4.8 149.874 4.8H147.786V9.12ZM159.287 18V15.12H161.447V4.32H159.287V1.44H167.447V4.32H165.287V15.12H167.447V18H159.287ZM170.08 9.72C170.08 8.376 170.296 7.176 170.728 6.12C171.176 5.064 171.776 4.168 172.528 3.432C173.296 2.696 174.168 2.136 175.144 1.752C176.136 1.352 177.184 1.152 178.288 1.152C179.328 1.152 180.28 1.296 181.144 1.584C182.024 1.856 182.88 2.272 183.712 2.832L181.624 5.904C181.128 5.568 180.592 5.296 180.016 5.088C179.44 4.864 178.824 4.752 178.168 4.752C177.4 4.752 176.696 4.936 176.056 5.304C175.432 5.672 174.928 6.224 174.544 6.96C174.176 7.696 173.992 8.616 173.992 9.72C173.992 10.824 174.176 11.744 174.544 12.48C174.928 13.216 175.44 13.768 176.08 14.136C176.72 14.504 177.424 14.688 178.192 14.688C178.848 14.688 179.456 14.568 180.016 14.328C180.592 14.088 181.128 13.768 181.624 13.368L183.832 16.344C183.016 16.984 182.168 17.472 181.288 17.808C180.408 18.128 179.424 18.288 178.336 18.288C177.232 18.288 176.176 18.096 175.168 17.712C174.176 17.312 173.296 16.744 172.528 16.008C171.776 15.272 171.176 14.376 170.728 13.32C170.296 12.264 170.08 11.064 170.08 9.72ZM186.72 18V1.44H190.56V8.304L195.792 1.44H200.568L194.52 8.616L200.88 18H196.224L192.096 11.52L190.56 13.32V18H186.72ZM201.246 16.224L203.07 13.032C203.774 13.608 204.59 14.08 205.518 14.448C206.446 14.8 207.35 14.976 208.23 14.976C208.758 14.976 209.198 14.912 209.55 14.784C209.918 14.656 210.198 14.488 210.39 14.28C210.582 14.072 210.678 13.84 210.678 13.584C210.678 13.36 210.59 13.128 210.414 12.888C210.254 12.648 209.95 12.4 209.502 12.144C209.07 11.888 208.43 11.624 207.582 11.352C206.27 10.92 205.206 10.432 204.39 9.888C203.59 9.328 203.006 8.72 202.638 8.064C202.27 7.408 202.086 6.72 202.086 6C202.086 5.12 202.318 4.312 202.782 3.576C203.262 2.84 203.966 2.256 204.894 1.824C205.822 1.376 206.966 1.152 208.326 1.152C209.414 1.152 210.494 1.328 211.566 1.68C212.654 2.016 213.566 2.44 214.302 2.952L212.598 6C211.942 5.536 211.222 5.16 210.438 4.872C209.654 4.568 208.846 4.416 208.014 4.416C207.342 4.416 206.83 4.544 206.478 4.8C206.126 5.056 205.95 5.352 205.95 5.688C205.95 5.928 206.038 6.16 206.214 6.384C206.406 6.608 206.718 6.832 207.15 7.056C207.598 7.28 208.198 7.52 208.95 7.776C210.31 8.224 211.406 8.728 212.238 9.288C213.07 9.832 213.678 10.44 214.062 11.112C214.446 11.768 214.638 12.504 214.638 13.32C214.638 14.2 214.39 15.016 213.894 15.768C213.398 16.52 212.646 17.128 211.638 17.592C210.63 18.056 209.358 18.288 207.822 18.288C207.07 18.288 206.318 18.2 205.566 18.024C204.814 17.864 204.078 17.632 203.358 17.328C202.638 17.024 201.934 16.656 201.246 16.224Z" fill="black"/>
</svg>
