<svg xmlns="http://www.w3.org/2000/svg" width="286" height="32" fill="none"><path fill="#fff" d="m270.002 27.647 2.804-2.438-.031-.055c-.413-.14-.779-.342-1.791-1.144V3.068c0-1.44.264-2.274.771-2.967L271.661 0c-1.117.222-2.384 1.173-2.842 2.395-.409-.675-1.182-1.291-2.087-1.36l-.039.133c.56.467.763 1.589.763 2.843v19.376c0 1.16-.203 1.526-.623 1.822v.078zM33.433 12.204l-.027.019-4.599-3.384-3.473 3.139V3.27c0-1.433.327-2.274.84-2.975l-.093-.094c-1.126.23-2.47 1.176-2.936 2.407-.214-.272-1.11-1.355-1.892-1.41l-.04.133c.468.467.67 1.588.593 2.834v19.322c.078 1.16-.623 1.931-.623 1.931v.086l2.834 2.22 2.765-2.454v-.07c-.53-.171-1.456-.919-1.456-.919V12.756l1.464-1.261 2.274 1.791V26.72c0 2.539-1.06 4.346-2.056 5.062l.35.218c3.809-1.721 5.452-3.411 5.452-7.943v-9.953c0-.947.164-1.564.596-1.881l.027.02zM104.66 11.098c-.841.303-1.036 2.126-1.036 2.126v10.903c-1.666.825-4.797 2.616-6.238 3.613l-4.05-2.367-3.044 2.367-5.156-2.951v-.094l.833-1.394v-9.93c0-1.162-.492-1.77-.979-2.371-.475-.586-.944-1.166-.944-2.247 0-2.46 2.134-3.465 3.995-3.395l.42.607c-.942-.1-1.72.195-1.72 1.278 0 .767.51 1.223 1.094 1.742.772.689 1.67 1.489 1.67 3.273v6.838L88.259 22.6v.086l4.377 2.562.405-.374v-12.71c-.304-.264-.865-.63-1.246-.833v-.117l2.772-2.406 2.835 2.18v.086c-.366.133-.834.654-.834 1.776v10.615l3.591 1.986.14-.07V12.226a6.2 6.2 0 0 0-1.456-.958v-.016l2.865-2.476 2.952 2.274zM15.576 6.34c2.258-.312 3.87-1.76 4.766-4.175v-.008l-.257-.32c-.631.819-1.472 1.48-2.96 1.48-.717 0-2.652-.443-4.655-.903-2.15-.493-4.38-1.004-5.266-1.004C3.59 1.41 2.064 3.03 0 7.258l.187.327C1.635 5.74 3.084 4.634 4.595 4.634c1.49 0 3.242.44 5.004.882 1.11.278 2.225.558 3.282.73-.888.598-1.928 1.274-2.712 1.784h-.001c-.46.3-.831.541-1.033.677v.124l.413 1.13v9.368c-.024.616-.18 2.235-1.02 2.975l.233.203q.18-.097.413-.212c1.412-.705 4.112-2.054 4.112-6.167V6.324c.467.054.942.109 1.378.109l.167.001c.113.002.225.004.324-.001v17.67s-1.978.304-3.146.304c-4.377 0-7.414-2.967-7.414-8.34 0-4.635 2.11-7.5 3.606-9.105l-.289-.14C5.607 7.96.64 10.49.64 17.71c0 5.865 4.968 10.164 10.272 10.164 5.303 0 7.865-3.007 9.298-6.441l-.218-.366c-1.3 1.48-4.415 2.936-4.415 2.936z"/><path fill="#fff" fill-rule="evenodd" d="m84.42 13.73-6.137 5.194v4.619l2.064 1.05c.303.164.568.266.786.273.288.008.53-.148.771-.405l.56-.537.46.444-3.613 3.473-5.39-2.943v-.016c.413-.312.834-.927.834-2.173V11.884a36 36 0 0 0 6.401-3.138c.88 1.487 2.259 3.535 3.264 4.984m-3.131 1.799a174 174 0 0 1-2.773-4.673l-.233.094v7.079zM72.683 23.722l.46.435-3.847 3.715c-.639-.506-2.734-1.495-3.754-1.495-1.153 0-2.648.592-3.606 1.527l-.101-.561c.903-1.449 2.718-3.255 4.603-3.637.778-.771 1.261-1.916 1.261-3.076v-3.598c-.958-.53-1.916-.841-2.99-.841-.99 0-1.924.249-3.038.903v5.14s-1.059 5.7-3.87 5.7c-.81 0-1.644-.46-2.407-.88-.645-.356-1.24-.685-1.728-.685-1.067 0-2.399.468-2.975 1.597l-.296-.343c.467-2.196 1.487-4.228 4.003-4.228.914 0 1.555.364 2.215.74.701.398 1.425.81 2.52.81 2.126 0 2.118-4.26 2.118-4.26V3.768c-1.044.631-1.456 1.27-1.456 2.648v11.176c0 2.982-2.11 4.096-4.393 5.179l-.327-.195c.6-.623.981-1.348.981-2.57v-1.418c-.49-.202-.872-.342-1.541-.342-1.457 0-2.204.677-2.47 1.246l-.272-.28c.133-2.103 1.145-3.941 2.85-3.941.379 0 .837.116 1.166.2.104.026.196.05.267.065v-2.072a3 3 0 0 0-1.464-.343c-1.051 0-1.876.172-2.546 1.246l-.234-.272c.016-2.18 1.067-3.925 2.874-3.925.545 0 1.145.195 1.37.272V9.088c0-1.822 1.005-3.154 2.516-4.15 0 0 4.198-2.75 6.02-3.965 1.456.935 7.866 4.198 7.866 4.198v.094c-.725.366-.834 1.004-.834 2.274v10.17c0 2.874-2.827 4.992-4.306 5.942h-.164c2.064 0 3.38.865 4.166 1.402zM67.7 6.9v5.42c-.965.538-1.916.834-2.99.834-.997 0-1.924-.226-3.038-.896V3.582l.094-.062s4.673 2.656 5.934 3.38m0 5.997v3.605a6.1 6.1 0 0 0-2.99-.802c-.982 0-2.142.327-3.038.904v-3.809c.896.584 2.064.896 3.038.896a6.2 6.2 0 0 0 2.99-.794M45.146 13.73l-6.106 5.186v4.634l2.056 1.044c.304.156.569.265.771.272.288.016.53-.148.787-.397l.521-.537.491.436-3.613 3.466-5.374-2.936v-.024c.42-.311.833-.927.833-2.165V11.884c1.877-.7 4.12-1.72 6.386-3.13.872 1.487 2.251 3.527 3.248 4.976m-3.1 1.799a128 128 0 0 1-2.772-4.673l-.234.094v7.079z" clip-rule="evenodd"/><path fill="#fff" d="M254.684 9.93c-.584 2.398-1.877 3.348-3.185 3.348-.88 0-1.823-.506-2.656-1.378l-.491.537v11.316l.624.287h.002c1.359.627 1.636.755 2.279.912v.125l-2.671 2.663-4.595-2.702v-.031c.483-.273.834-.756.834-1.83v-10.46q-.301-.292-.518-.505c-.605-.59-.798-.78-1.118-.974l-.078-.062 2.5-2.391 2.749 2.889 2.843-2.92c.607.84 1.3 1.207 2.141 1.207.312 0 .802-.024 1.207-.21l.141.186zM217.65 1.157l.003-.004v.007zM217.482.927l.168.23c-1.478 2.068-2.475 2.947-4.078 2.947-.599 0-1.327-.197-2.047-.392-.703-.19-1.398-.379-1.956-.379-.911 0-1.269.21-1.83.662l-.148-.233c.872-1.605 2.368-2.742 3.684-2.742.827 0 1.962.33 2.805.574.498.145.895.26 1.065.26.834 0 1.597-.328 2.337-.927M217.427 3.77l-.005.005-.306-.1c-2.726 1.13-4.276 3.07-4.276 5.335v1.426c-.226-.07-.841-.257-1.386-.257-1.838 0-2.897 1.76-2.936 3.971l.234.265c.685-1.074 1.534-1.254 2.585-1.254.608 0 .989.102 1.503.335v2.11a8 8 0 0 1-.274-.064c-.337-.084-.808-.2-1.198-.2-1.721 0-2.749 1.869-2.881 4.01l.265.258c.28-.577 1.02-1.246 2.523-1.246.67 0 1.051.14 1.565.334v1.426c0 1.596-.576 2.889-1.503 3.87l.475.14c2.516-1.464 4.556-3.465 4.556-6.503V6.861c0-1.39.511-2.4 1.054-3.086l.005.002zM187.499 25.387l-2.687 2.345-3.123-2.352v-.078l.413-1.464V13.341l-2.492-2.056-1.246 1.105v11.885s.856.747 1.456.919v.03l-2.85 2.532-2.968-2.298v-.07c.53-.234.834-.654.834-1.885V12.859l-.072-.075c-.915-.952-1.185-1.233-1.618-1.506l-.07-.063 2.523-2.43 2.765 2.898 3.426-2.929a439 439 0 0 0 4.673 3.56v.054l-.623 2.001v9.766c.259.19.47.348.647.48.476.358.711.534 1.012.665zM160.101 25.31l-2.702 2.415-3.107-2.337v-.179c.405-.296.623-.662.623-1.822V4.01c0-1.254-.218-2.383-.756-2.843l.024-.132c.934.07 1.674.724 2.056 1.425h.155c.413-1.254 1.628-2.235 2.679-2.461l.086.101c-.467.693-.717 1.527-.717 2.967V24.01c.943.802 1.285 1.004 1.659 1.144zM124.193 12.886c2.994-2.122 6.969-4.94 6.969-8.86l.008-.007c0-2.127-1.464-3.271-2.968-3.404l-.965 1.036.101.132c.094-.02.152-.035.193-.045.036-.01.058-.015.081-.019.039-.006.079-.006.185-.006.834 0 1.605.366 1.605 1.137s-.452 1.535-1.971 1.535c-.994 0-2.726-.715-4.61-1.492-2.246-.927-4.708-1.943-6.394-1.943-2.905 0-4.867 1.643-4.867 4.307 0 2.367 2.118 3.372 4.634 3.372 1.168 0 2.157-.288 2.702-.67l.234-.77-.07-.032a4.5 4.5 0 0 1-2.57.771c-.756 0-3.606-.023-3.606-2.01 0-.996.872-1.471 1.97-1.471 1.852 0 3.738.858 5.57 1.69 1.727.786 3.406 1.55 4.959 1.55 2.656 0 4.58-1.496 4.805-3.762l.133-.078c.28 3.575-5.335 7.515-7.967 9.15l-.477-.159c-1.16-.391-2.322-.782-3.363-.782-3.263 0-4.657 1.339-6.292 4.267l.202.234c.966-.794 1.831-1.363 4.432-1.363.592 0 1.207.109 1.838.296l-.519.352c-3.089 2.091-7.931 5.37-7.931 8.946 0 2.204 1.378 3.248 2.842 3.35l1.192-1.31-.055-.1-.132.033c-.273.07-.389.1-.646.1-1.013 0-1.605-.5-1.605-1.278 0-.896.849-1.417 2.134-1.417 1.501 0 3.11.815 4.824 1.684 1.95.989 4.036 2.046 6.25 2.046 3.139 0 4.946-1.597 4.946-4.424 0-1.744-1.464-3.247-4.977-3.247-1.16 0-2.032.342-2.539.67l-.194.724.062.031c.405-.257 1.269-.724 2.609-.724 2.399 0 3.832.864 3.832 2.032 0 1.036-.803 1.605-2.298 1.605-1.013 0-2.748-.82-4.541-1.666-1.916-.904-3.896-1.839-5.131-1.839-2.391 0-5.016 1.036-5.592 4.073l-.109-.101c0-3.504 5.785-7.236 8.617-9.062l.113-.073.331.115c1.082.379 2.164.757 3.181.757 3.45 0 4.175-1.332 5.615-4.01l-.272-.195c-.6.467-2.048 1.028-3.505 1.028-.49 0-1.137-.094-1.674-.226z"/><path fill="#fff" fill-rule="evenodd" d="m285.516 24.018-.008.004v-.075s-.561-.638-.413-1.378V10.56L275.407.382h-.07V4.93l3.684 3.862-4.93 3.209v10.965l-.413 1.573v.07l5.327 3.084 6.503-3.671v.003zm-4.151-12.5-2.08-2.142-1.658 1.138v12.67l3.629 2.25.109-.038zM263.017 27.771l2.733-2.57h-.007l-.047-.062c-.452-.18-.787-.436-1.776-1.27V13.365c-.008-.756.187-1.402.623-1.8v-.1c-.794-.468-4.034-2.672-4.034-2.672-2.103 1.581-5.07 3.201-6.339 3.879.195 1.674 1.737 3.94 3.208 4.758-2.266.911-3.901 2.508-3.901 5.078 0 2.398 1.487 4.135 3.489 5.264l3.605-2.235zm-2.625-15.015v3.87c-.833.118-1.604.297-2.367.53-.896-1.331-1.418-3.372-1.262-5.264l1.262-.732c.724.467 2.367 1.596 2.367 1.596m0 4.533v7.663l.008.008-.849.545c-1.884-.942-2.632-2.072-2.632-3.878 0-2.64.841-3.738 3.473-4.338M243.041 13.73l-.007.006c-1.004-1.44-2.386-3.475-3.256-4.96a35 35 0 0 1-6.37 3.124v10.81c0 1.253-.421 1.876-.834 2.195l5.374 2.936 3.613-3.473-.467-.444-.545.537c-.257.257-.498.413-.779.405-.218-.007-.475-.116-.779-.272l-2.055-1.052V18.91l6.098-5.173.007.01zm-3.099 1.814a143 143 0 0 1-2.781-4.672l-.225.093v7.08zM230.698 13.17c0-.78.257-1.371.623-1.652l-.016-.015v-.117c-.709-.418-2.551-1.54-3.589-2.172l-.008-.005-.002-.002-.018-.01c-.361-.22-.619-.378-.69-.42 0 0-.887.849-4.205 3.2v-9.75c1.729.226 3.068 1.908 3.769 3.123l3.668-3.504-.366-.327-1.082.973c-1.301-1.09-2.601-1.604-4.618-1.604-1.215 0-2.633.724-3.972 1.713-2.352 1.713-2.78 3.084-2.78 5.101v11.822c0 2.048-.826 3.247-1.457 3.948-2.398.39-4.914 2.173-5.942 4.097l.195.405c1.378-1.083 2.92-1.472 5.342-1.472 2.196 0 4.042.498 5.218 1.44l3.754-3.628-.39-.374-1.253 1.207-.07-.04V12.594l1.837-1.363 2.524 1.768v12.297c0 2.445-1.153 4.01-2.578 5.264l.374.203c3.06-.841 5.732-3.279 5.732-6.246zm-8.302-10.88v22.444h-.008c-1.324-.709-3.388-1.363-5.428-1.402 1.869-1.004 3.979-2.85 3.979-5.56V4.128c0-1.301.655-1.807 1.457-1.838M200.59 24.018l-.008.004v-.067s-.374-.615-.413-1.378V10.568L190.661.389h-.039v4.548l3.691 3.863-4.937 3.209v10.903c0 1.012-.296 1.417-.623 1.705l5.358 3.084 6.471-3.679v.003zm-3.948 1.37v-13.87l-2.088-2.141-1.643 1.144v12.663l3.645 2.243.093-.039zM169.898 27.764l2.664-2.563v-.109c-.421-.163-.732-.397-1.659-1.16v-10.63c0-.701.195-1.293.623-1.667v-.171l-4.135-2.672c-2.095 1.581-5.062 3.201-6.332 3.879.195 1.674 1.745 3.94 3.209 4.758-2.267.911-3.91 2.508-3.91 5.078 0 2.398 1.495 4.135 3.505 5.256l3.59-2.227zm-2.531-15.008v3.87q-1.236.179-2.367.53c-.904-1.331-1.441-3.372-1.262-5.264L165 11.16c.74.467 2.367 1.596 2.367 1.596m0 4.533v7.67l-.825.546c-1.908-.942-2.64-2.072-2.64-3.878 0-2.64.825-3.738 3.465-4.338M153.45 25.209v-.039c-.475-.187-.825-.46-1.869-1.324V13.364l.834-1.8v-.1l-4.175-2.672c-2.087 1.581-5.062 3.201-6.339 3.879.195 1.674 1.737 3.94 3.201 4.758-2.251.911-3.894 2.508-3.894 5.078 0 2.398 1.495 4.135 3.505 5.256l3.605-2.227 2.43 2.227zm-5.186-8.582v-3.87s-1.651-1.13-2.368-1.597l-1.261.732c-.172 1.892.35 3.933 1.261 5.265.748-.234 1.55-.413 2.368-.53m0 8.325V17.29c-2.632.6-3.474 1.698-3.474 4.338 0 1.806.725 2.936 2.625 3.878l.841-.545zM135.188 18.909l6.121-5.18h.008c-1.02-1.448-2.391-3.48-3.263-4.968-2.251 1.41-4.517 2.422-6.394 3.123v10.81c0 1.261-.412 1.892-.833 2.204l5.381 2.943 3.614-3.473-.475-.444-.538.537c-.241.257-.498.413-.786.405-.218-.007-.46-.109-.763-.272l-2.072-1.052zm.047-8.053c.763 1.37 1.62 2.835 2.757 4.673l-3.006 2.5v-7.08z" clip-rule="evenodd"/></svg>