<svg width="173" height="30" viewBox="0 0 173 30" fill="none" xmlns="http://www.w3.org/2000/svg">
<path d="M13.228 5.276L12.832 5.096L11.752 5.96V19.604C11.248 19.94 10.708 20.288 10.132 20.648C9.652 20.96 9.112 21.32 8.512 21.728C7.912 22.112 7.312 22.508 6.712 22.916C8.176 24.764 10.348 25.892 13.228 26.3V5.276ZM22.732 3.332C22.276 3.956 21.712 4.688 21.04 5.528C20.392 6.344 19.756 7.088 19.132 7.76C18.58 7.568 17.824 7.28 16.864 6.896C15.904 6.512 14.908 6.08 13.876 5.6V26.336C14.068 26.36 14.332 26.372 14.668 26.372C15.028 26.372 15.316 26.372 15.532 26.372C17.044 26.372 18.352 26.144 19.456 25.688C20.584 25.232 21.508 24.728 22.228 24.176L22.372 24.752C21.916 25.376 21.4 25.976 20.824 26.552C20.248 27.128 19.564 27.644 18.772 28.1C18.004 28.532 17.104 28.88 16.072 29.144C15.064 29.408 13.876 29.54 12.508 29.54C10.66 29.54 8.98 29.276 7.468 28.748C5.956 28.196 4.66 27.416 3.58 26.408C2.5 25.376 1.66 24.104 1.06 22.592C0.46 21.08 0.16 19.352 0.16 17.408C0.16 16.04 0.376 14.732 0.808 13.484C1.264 12.236 1.828 11.096 2.5 10.064C3.196 9.032 3.952 8.144 4.768 7.4C5.584 6.656 6.376 6.104 7.144 5.744L7.792 5.924C7.24 6.428 6.748 7.04 6.316 7.76C5.908 8.456 5.56 9.2 5.272 9.992C5.008 10.784 4.804 11.6 4.66 12.44C4.516 13.256 4.444 14.036 4.444 14.78C4.444 18.02 5.092 20.576 6.388 22.448C7.012 21.992 7.42 21.488 7.612 20.936C7.804 20.36 7.9 19.652 7.9 18.812V8.12C9.436 6.944 10.756 5.888 11.86 4.952C12.988 3.992 14.08 3.044 15.136 2.108C15.904 2.42 16.576 2.684 17.152 2.9C17.728 3.116 18.232 3.296 18.664 3.44C19.12 3.584 19.54 3.692 19.924 3.764C20.308 3.812 20.68 3.836 21.04 3.836C21.208 3.836 21.376 3.776 21.544 3.656C21.736 3.512 21.952 3.272 22.192 2.936L22.732 3.332ZM30.4548 18.632C30.0468 18.776 29.6388 18.848 29.2308 18.848C28.9668 18.848 28.6908 18.836 28.4028 18.812C28.1148 18.764 27.8508 18.704 27.6108 18.632C27.4428 18.944 27.3588 19.424 27.3588 20.072V25.148C27.6708 25.34 27.9588 25.544 28.2228 25.76C28.4868 25.952 28.7868 26.144 29.1228 26.336L30.4548 25.184V18.632ZM30.4548 12.368C29.6628 11.912 28.9908 11.612 28.4388 11.468C27.8868 11.324 27.4308 11.252 27.0708 11.252C26.9028 11.252 26.6868 11.3 26.4228 11.396C26.1828 11.468 25.9428 11.624 25.7028 11.864C25.4628 12.08 25.2588 12.404 25.0908 12.836C24.9228 13.268 24.8388 13.844 24.8388 14.564C24.8388 15.044 24.9588 15.5 25.1988 15.932C25.4388 16.34 25.7628 16.7 26.1708 17.012C26.5788 17.324 27.0468 17.576 27.5748 17.768C28.1268 17.936 28.6908 18.02 29.2668 18.02C29.4348 18.02 29.6148 17.996 29.8068 17.948C30.0228 17.9 30.2388 17.84 30.4548 17.768V12.368ZM36.0708 26.336C35.6628 26.744 35.1948 27.2 34.6668 27.704C34.1388 28.208 33.6948 28.64 33.3348 29C32.7588 28.544 32.1468 28.088 31.4988 27.632C30.8508 27.176 30.3468 26.816 29.9868 26.552L27.1428 29C26.6388 28.592 26.0148 28.124 25.2708 27.596C24.5508 27.044 23.8788 26.564 23.2548 26.156V26.012C23.4468 25.892 23.5908 25.724 23.6868 25.508C23.8068 25.268 23.8668 24.836 23.8668 24.212V20.144C24.5148 19.832 25.1028 19.544 25.6308 19.28C26.1828 19.016 26.6628 18.752 27.0708 18.488C26.7108 18.344 26.3388 18.164 25.9548 17.948C25.5948 17.708 25.2588 17.432 24.9468 17.12C24.6588 16.784 24.4188 16.412 24.2268 16.004C24.0348 15.572 23.9388 15.092 23.9388 14.564C23.9388 13.94 24.0108 13.388 24.1548 12.908C24.2988 12.428 24.4788 11.996 24.6948 11.612C24.9108 11.228 25.1508 10.88 25.4148 10.568C25.7028 10.232 25.9908 9.896 26.2788 9.56C26.5668 9.2 26.8068 8.888 26.9988 8.624C27.2148 8.36 27.4188 8.072 27.6108 7.76C28.0428 7.952 28.5588 8.168 29.1588 8.408C29.7828 8.624 30.4308 8.852 31.1028 9.092C31.7748 9.332 32.4228 9.572 33.0468 9.812C33.6948 10.028 34.2708 10.22 34.7748 10.388V10.532C34.5588 10.7 34.4028 10.916 34.3068 11.18C34.2108 11.42 34.1628 11.768 34.1628 12.224V25.4C34.2348 25.472 34.3548 25.568 34.5228 25.688C34.6908 25.808 34.8588 25.916 35.0268 26.012C35.2188 26.084 35.3988 26.156 35.5668 26.228C35.7588 26.276 35.9028 26.276 35.9988 26.228L36.0708 26.336ZM43.7028 19.712L42.3348 19.064C42.0708 19.352 41.7588 19.712 41.3988 20.144C41.0628 20.576 40.7268 21.032 40.3908 21.512C40.0548 21.992 39.7428 22.484 39.4548 22.988C39.1668 23.468 38.9388 23.9 38.7708 24.284C39.7788 24.452 40.6908 24.752 41.5068 25.184C42.3468 25.592 43.0548 26.024 43.6308 26.48L43.7028 26.444V19.712ZM45.2868 12.98C44.6628 12.644 43.9908 12.212 43.2708 11.684C42.5748 11.132 41.9748 10.64 41.4708 10.208H41.3988V16.328C41.7108 16.496 42.0708 16.664 42.4788 16.832C42.6948 16.616 42.9348 16.352 43.1988 16.04C43.4868 15.704 43.7628 15.356 44.0268 14.996C44.2908 14.636 44.5308 14.276 44.7468 13.916C44.9868 13.556 45.1788 13.244 45.3228 12.98H45.2868ZM47.9868 18.236C47.7948 18.38 47.6388 18.56 47.5188 18.776C47.4228 18.968 47.3748 19.244 47.3748 19.604V25.832C46.4148 26.192 45.4308 26.648 44.4228 27.2C43.4388 27.728 42.4548 28.328 41.4708 29C40.9668 28.64 40.3908 28.292 39.7428 27.956C39.0948 27.62 38.4588 27.38 37.8348 27.236C37.7868 27.356 37.7508 27.512 37.7268 27.704C37.7028 27.872 37.6908 28.088 37.6908 28.352C37.6908 28.472 37.6908 28.58 37.6908 28.676C37.6908 28.772 37.7028 28.88 37.7268 29H37.6908C37.5708 28.928 37.4028 28.82 37.1868 28.676C36.9708 28.532 36.8268 28.412 36.7548 28.316C36.8028 27.332 36.9588 26.408 37.2228 25.544C37.5108 24.656 37.8468 23.852 38.2308 23.132C38.6388 22.388 39.0588 21.728 39.4908 21.152C39.9228 20.552 40.3068 20.048 40.6428 19.64C40.3788 19.52 40.0788 19.376 39.7428 19.208C39.4068 19.04 39.0708 18.872 38.7348 18.704C38.3988 18.536 38.0748 18.38 37.7628 18.236C37.4748 18.092 37.2468 17.984 37.0788 17.912V17.768C37.2708 17.648 37.4148 17.492 37.5108 17.3C37.6308 17.108 37.6908 16.832 37.6908 16.472V10.496C38.6028 10.232 39.5388 9.848 40.4988 9.344C41.4588 8.84 42.3228 8.312 43.0908 7.76C43.6668 8.216 44.2548 8.672 44.8548 9.128C45.4548 9.584 46.0908 10.016 46.7628 10.424C46.8588 10.184 46.9428 9.884 47.0148 9.524C47.0868 9.14 47.1228 8.816 47.1228 8.552L47.1588 8.516C47.2788 8.612 47.4108 8.756 47.5548 8.948C47.6988 9.116 47.8068 9.248 47.8788 9.344C47.7588 10.112 47.4348 11.084 46.9068 12.26C46.3788 13.412 45.5028 14.768 44.2788 16.328L47.9868 18.092V18.236ZM53.485 29C53.293 28.856 53.053 28.676 52.765 28.46C52.477 28.244 52.177 28.028 51.865 27.812C51.553 27.596 51.229 27.38 50.893 27.164C50.581 26.948 50.305 26.756 50.065 26.588V26.444C50.305 26.3 50.461 26.108 50.533 25.868C50.629 25.628 50.677 25.256 50.677 24.752V11.36L50.209 11.072C49.825 10.832 49.537 10.7 49.345 10.676C49.177 10.628 48.997 10.604 48.805 10.604L48.769 10.46L51.577 7.76C51.985 8.072 52.513 8.468 53.161 8.948C53.833 9.428 54.445 9.848 54.997 10.208V10.352C54.781 10.472 54.625 10.652 54.529 10.892C54.433 11.108 54.385 11.456 54.385 11.936V25.436C54.937 25.796 55.333 26.024 55.573 26.12C55.837 26.192 56.053 26.228 56.221 26.228L56.293 26.336L53.485 29ZM55.969 3.332C55.777 3.5 55.501 3.716 55.141 3.98C54.805 4.244 54.433 4.52 54.025 4.808C53.617 5.096 53.209 5.384 52.801 5.672C52.417 5.936 52.069 6.164 51.757 6.356L51.541 4.808C51.757 4.568 52.021 4.28 52.333 3.944C52.669 3.584 52.993 3.224 53.305 2.864C53.641 2.504 53.953 2.156 54.241 1.82C54.529 1.46 54.745 1.172 54.889 0.955998C55.033 1.148 55.201 1.496 55.393 2C55.609 2.48 55.801 2.924 55.969 3.332ZM70.8657 26.336C70.5057 26.672 70.0617 27.104 69.5337 27.632C69.0057 28.16 68.5257 28.628 68.0937 29.036C67.8777 28.868 67.6017 28.676 67.2657 28.46C66.9537 28.22 66.6297 27.98 66.2937 27.74C65.9817 27.5 65.6697 27.284 65.3577 27.092C65.0697 26.876 64.8297 26.708 64.6377 26.588V26.444C64.8297 26.324 64.9737 26.144 65.0697 25.904C65.1897 25.664 65.2497 25.268 65.2497 24.716V11.756C64.9137 11.492 64.5897 11.264 64.2777 11.072C63.9897 10.88 63.7017 10.688 63.4137 10.496C63.2217 10.664 63.0417 10.808 62.8737 10.928C62.7297 11.048 62.5857 11.168 62.4417 11.288C62.2977 11.384 62.2017 11.456 62.1537 11.504V25.616C62.3697 25.808 62.5617 25.964 62.7297 26.084C62.9217 26.18 63.1377 26.324 63.3777 26.516V26.552C62.9457 26.936 62.4897 27.344 62.0097 27.776C61.5537 28.208 61.1337 28.616 60.7497 29C60.1977 28.592 59.6577 28.184 59.1297 27.776C58.6017 27.368 58.1697 27.032 57.8337 26.768V26.624C58.0017 26.504 58.1457 26.324 58.2657 26.084C58.3857 25.82 58.4457 25.388 58.4457 24.788V11.36C58.1097 11.096 57.7857 10.904 57.4737 10.784C57.1617 10.64 56.8857 10.556 56.6457 10.532L56.5737 10.46C57.1017 9.98 57.5697 9.536 57.9777 9.128C58.4097 8.696 58.8537 8.24 59.3097 7.76C59.8857 8.216 60.4737 8.66 61.0737 9.092C61.6737 9.524 62.1777 9.884 62.5857 10.172H62.6217L65.4657 7.76C66.0657 8.168 66.7377 8.624 67.4817 9.128C68.2257 9.632 68.9217 10.088 69.5697 10.496V10.64C69.3777 10.784 69.2217 10.964 69.1017 11.18C69.0057 11.396 68.9577 11.696 68.9577 12.08V25.436C69.2457 25.652 69.5697 25.856 69.9297 26.048C70.2897 26.216 70.5777 26.288 70.7937 26.264L70.8657 26.336ZM79.5155 12.152C79.1075 11.864 78.6275 11.552 78.0755 11.216C77.5235 10.856 77.0075 10.544 76.5275 10.28L76.4195 10.316V24.572C76.8275 24.86 77.3315 25.196 77.9315 25.58C78.5315 25.94 79.0355 26.24 79.4435 26.48L79.5155 26.408V12.152ZM83.8355 10.856C83.6675 10.976 83.5235 11.144 83.4035 11.36C83.2835 11.576 83.2235 11.948 83.2235 12.476V25.004C82.8155 25.244 82.3475 25.52 81.8195 25.832C81.3155 26.144 80.7875 26.48 80.2355 26.84C79.6835 27.176 79.1315 27.536 78.5795 27.92C78.0275 28.28 77.5115 28.64 77.0315 29C76.2395 28.448 75.4115 27.908 74.5475 27.38C73.6835 26.828 72.8675 26.336 72.0995 25.904V25.76C72.5075 25.592 72.7115 25.124 72.7115 24.356V11.72C73.6235 11.192 74.6435 10.568 75.7715 9.848C76.9235 9.128 77.9675 8.42 78.9035 7.724C79.6715 8.204 80.4875 8.72 81.3515 9.272C82.2395 9.824 83.0675 10.304 83.8355 10.712V10.856ZM102.65 5.924H102.578C102.05 6.428 101.522 7.016 100.994 7.688C100.466 8.36 99.986 9.104 99.554 9.92C99.146 10.736 98.81 11.636 98.546 12.62C98.282 13.58 98.15 14.612 98.15 15.716C98.15 17.3 98.33 18.692 98.69 19.892C99.05 21.092 99.578 22.124 100.274 22.988L101.498 22.124C101.906 21.836 102.194 21.452 102.362 20.972C102.554 20.492 102.65 19.724 102.65 18.668V5.924ZM107.978 6.788C107.786 6.764 107.642 6.752 107.546 6.752C107.45 6.728 107.354 6.704 107.258 6.68C107.162 6.656 107.054 6.632 106.934 6.608C106.838 6.584 106.694 6.548 106.502 6.5V19.496C105.758 19.976 105.038 20.456 104.342 20.936C103.742 21.344 103.106 21.788 102.434 22.268C101.786 22.724 101.21 23.12 100.706 23.456C102.386 25.208 104.81 26.108 107.978 26.156V6.788ZM115.43 2.396C114.902 3.332 114.446 4.112 114.062 4.736C113.702 5.36 113.366 5.852 113.054 6.212C112.742 6.572 112.418 6.836 112.082 7.004C111.77 7.148 111.398 7.22 110.966 7.22C110.51 7.22 110.102 7.184 109.742 7.112C109.406 7.04 109.034 6.98 108.626 6.932V26.156C109.874 26.108 111.086 25.88 112.262 25.472C113.462 25.064 114.41 24.584 115.106 24.032L115.322 24.788C114.842 25.46 114.314 26.084 113.738 26.66C113.162 27.236 112.49 27.74 111.722 28.172C110.954 28.604 110.078 28.94 109.094 29.18C108.11 29.42 106.982 29.54 105.71 29.54C104.006 29.54 102.422 29.264 100.958 28.712C99.518 28.136 98.27 27.332 97.214 26.3C96.158 25.244 95.33 23.984 94.73 22.52C94.13 21.056 93.83 19.424 93.83 17.624C93.83 16.28 94.034 15.032 94.442 13.88C94.874 12.704 95.462 11.624 96.206 10.64C96.95 9.656 97.814 8.768 98.798 7.976C99.782 7.16 100.85 6.452 102.002 5.852C101.546 5.804 101.078 5.768 100.598 5.744C100.118 5.72 99.602 5.708 99.05 5.708C98.426 5.708 97.79 5.804 97.142 5.996C96.518 6.188 95.894 6.548 95.27 7.076C94.67 7.58 94.082 8.3 93.506 9.236C92.954 10.172 92.45 11.396 91.994 12.908L91.31 12.404C91.886 10.628 92.45 9.092 93.002 7.796C93.554 6.5 94.154 5.432 94.802 4.592C95.474 3.752 96.218 3.128 97.034 2.72C97.874 2.312 98.87 2.108 100.022 2.108C101.15 2.108 102.194 2.192 103.154 2.36C104.138 2.528 105.11 2.72 106.07 2.936C107.03 3.128 108.026 3.308 109.058 3.476C110.114 3.644 111.29 3.728 112.586 3.728C112.73 3.728 112.874 3.716 113.018 3.692C113.186 3.644 113.354 3.56 113.522 3.44C113.714 3.32 113.918 3.152 114.134 2.936C114.374 2.696 114.65 2.372 114.962 1.964L115.43 2.396ZM127.365 11.756C127.005 12.116 126.585 12.596 126.105 13.196C125.649 13.796 125.253 14.336 124.917 14.816H124.773C124.605 14.504 124.401 14.168 124.161 13.808C123.921 13.424 123.669 13.04 123.405 12.656C123.165 12.272 122.925 11.924 122.685 11.612C122.469 11.276 122.277 11.012 122.109 10.82L121.497 11.432V24.536C121.929 24.8 122.277 25.016 122.541 25.184C122.829 25.352 123.057 25.484 123.225 25.58C123.417 25.652 123.573 25.7 123.693 25.724C123.813 25.748 123.945 25.76 124.089 25.76C124.209 25.76 124.317 25.712 124.413 25.616C124.533 25.52 124.653 25.412 124.773 25.292L125.097 24.932L125.709 25.472L123.153 28.028C122.793 28.388 122.481 28.712 122.217 29C121.449 28.496 120.645 28.016 119.805 27.56C118.989 27.104 118.113 26.648 117.177 26.192V26.048C117.369 25.856 117.513 25.652 117.609 25.436C117.729 25.196 117.789 24.8 117.789 24.248V11.36C117.405 11.072 117.069 10.868 116.781 10.748C116.517 10.628 116.253 10.556 115.989 10.532L115.917 10.424C116.325 10.04 116.781 9.62 117.285 9.164C117.789 8.708 118.245 8.24 118.653 7.76C119.157 8.168 119.661 8.588 120.165 9.02C120.693 9.428 121.185 9.812 121.641 10.172C121.953 9.908 122.217 9.68 122.433 9.488C122.673 9.296 122.889 9.116 123.081 8.948C123.273 8.78 123.465 8.612 123.657 8.444C123.849 8.252 124.077 8.024 124.341 7.76C124.749 8.36 125.241 9.02 125.817 9.74C126.393 10.46 126.909 11.12 127.365 11.72V11.756ZM132.411 29C132.219 28.856 131.979 28.676 131.691 28.46C131.403 28.244 131.103 28.028 130.791 27.812C130.479 27.596 130.155 27.38 129.819 27.164C129.507 26.948 129.231 26.756 128.991 26.588V26.444C129.231 26.3 129.387 26.108 129.459 25.868C129.555 25.628 129.603 25.256 129.603 24.752V11.36L129.135 11.072C128.751 10.832 128.463 10.7 128.271 10.676C128.103 10.628 127.923 10.604 127.731 10.604L127.695 10.46L130.503 7.76C130.911 8.072 131.439 8.468 132.087 8.948C132.759 9.428 133.371 9.848 133.923 10.208V10.352C133.707 10.472 133.551 10.652 133.455 10.892C133.359 11.108 133.311 11.456 133.311 11.936V25.436C133.863 25.796 134.259 26.024 134.499 26.12C134.763 26.192 134.979 26.228 135.147 26.228L135.219 26.336L132.411 29ZM134.895 3.332C134.703 3.5 134.427 3.716 134.067 3.98C133.731 4.244 133.359 4.52 132.951 4.808C132.543 5.096 132.135 5.384 131.727 5.672C131.343 5.936 130.995 6.164 130.683 6.356L130.467 4.808C130.683 4.568 130.947 4.28 131.259 3.944C131.595 3.584 131.919 3.224 132.231 2.864C132.567 2.504 132.879 2.156 133.167 1.82C133.455 1.46 133.671 1.172 133.815 0.955998C133.959 1.148 134.127 1.496 134.319 2C134.535 2.48 134.727 2.924 134.895 3.332ZM146.983 10.532C146.815 10.676 146.623 10.856 146.407 11.072C146.191 11.288 145.963 11.504 145.723 11.72C145.507 11.936 145.291 12.152 145.075 12.368C144.883 12.56 144.715 12.728 144.571 12.872H144.535C144.007 12.608 143.395 12.248 142.699 11.792C142.027 11.312 141.427 10.784 140.899 10.208L140.755 10.28V23.852C141.859 24.572 142.675 25.04 143.203 25.256C143.755 25.472 144.211 25.58 144.571 25.58C144.739 25.58 144.883 25.556 145.003 25.508C145.123 25.436 145.219 25.364 145.291 25.292L145.615 24.932L146.191 25.472C145.711 25.952 145.147 26.516 144.499 27.164C143.875 27.788 143.275 28.4 142.699 29C142.363 28.784 141.931 28.52 141.403 28.208C140.875 27.896 140.311 27.572 139.711 27.236C139.111 26.9 138.511 26.576 137.911 26.264C137.335 25.952 136.843 25.7 136.435 25.508V25.364C136.603 25.244 136.747 25.088 136.867 24.896C136.987 24.704 137.047 24.368 137.047 23.888V11.756C137.959 11.276 138.967 10.688 140.071 9.992C141.175 9.272 142.231 8.528 143.239 7.76C143.935 8.408 144.499 8.912 144.931 9.272C145.363 9.632 145.711 9.908 145.975 10.1C146.239 10.268 146.431 10.376 146.551 10.424C146.695 10.448 146.815 10.448 146.911 10.424L146.983 10.532ZM156.102 14.564C155.742 13.892 155.346 13.208 154.914 12.512C154.482 11.816 154.086 11.192 153.726 10.64L152.322 11.648V17.264C152.946 16.856 153.582 16.412 154.23 15.932C154.878 15.452 155.502 14.996 156.102 14.564ZM161.034 26.336C160.674 26.672 160.23 27.104 159.702 27.632C159.174 28.16 158.694 28.628 158.262 29.036C157.878 28.772 157.518 28.508 157.182 28.244C156.87 28.028 156.558 27.812 156.246 27.596C155.934 27.38 155.658 27.188 155.418 27.02V18.92C155.058 18.608 154.722 18.332 154.41 18.092C154.122 17.852 153.822 17.624 153.51 17.408L152.322 18.2V25.616C152.538 25.808 152.73 25.964 152.898 26.084C153.09 26.18 153.306 26.324 153.546 26.516V26.552C153.21 26.84 152.79 27.212 152.286 27.668C151.782 28.124 151.314 28.568 150.882 29C150.522 28.688 150.054 28.34 149.478 27.956C148.926 27.548 148.434 27.188 148.002 26.876V26.732C148.194 26.612 148.338 26.432 148.434 26.192C148.554 25.928 148.614 25.496 148.614 24.896V3.368C148.614 2.936 148.59 2.576 148.542 2.288C148.494 1.976 148.398 1.724 148.254 1.532L148.398 1.46C148.662 1.556 148.95 1.736 149.262 2C149.574 2.264 149.79 2.576 149.91 2.936H149.982C150.246 2.312 150.606 1.76 151.062 1.28C151.518 0.775999 152.094 0.416 152.79 0.2L152.898 0.271999C152.73 0.535998 152.586 0.847998 152.466 1.208C152.37 1.568 152.322 2.06 152.322 2.684V10.712L156.39 7.76C156.582 8.072 156.798 8.42 157.038 8.804C157.278 9.188 157.518 9.584 157.758 9.992C158.022 10.4 158.274 10.808 158.514 11.216C158.778 11.6 159.006 11.96 159.198 12.296C159.39 12.176 159.57 11.996 159.738 11.756H159.774C159.822 11.876 159.858 12.056 159.882 12.296C159.906 12.512 159.918 12.656 159.918 12.728C159.342 13.136 158.766 13.556 158.19 13.988C157.614 14.396 156.99 14.828 156.318 15.284C156.798 15.692 157.254 16.064 157.686 16.4C158.142 16.712 158.622 17.072 159.126 17.48V25.436C159.414 25.652 159.738 25.856 160.098 26.048C160.458 26.216 160.746 26.288 160.962 26.264L161.034 26.336ZM168.683 19.712L167.315 19.064C167.051 19.352 166.739 19.712 166.379 20.144C166.043 20.576 165.707 21.032 165.371 21.512C165.035 21.992 164.723 22.484 164.435 22.988C164.147 23.468 163.919 23.9 163.751 24.284C164.759 24.452 165.671 24.752 166.487 25.184C167.327 25.592 168.035 26.024 168.611 26.48L168.683 26.444V19.712ZM170.267 12.98C169.643 12.644 168.971 12.212 168.251 11.684C167.555 11.132 166.955 10.64 166.451 10.208H166.379V16.328C166.691 16.496 167.051 16.664 167.459 16.832C167.675 16.616 167.915 16.352 168.179 16.04C168.467 15.704 168.743 15.356 169.007 14.996C169.271 14.636 169.511 14.276 169.727 13.916C169.967 13.556 170.159 13.244 170.303 12.98H170.267ZM172.967 18.236C172.775 18.38 172.619 18.56 172.499 18.776C172.403 18.968 172.355 19.244 172.355 19.604V25.832C171.395 26.192 170.411 26.648 169.403 27.2C168.419 27.728 167.435 28.328 166.451 29C165.947 28.64 165.371 28.292 164.723 27.956C164.075 27.62 163.439 27.38 162.815 27.236C162.767 27.356 162.731 27.512 162.707 27.704C162.683 27.872 162.671 28.088 162.671 28.352C162.671 28.472 162.671 28.58 162.671 28.676C162.671 28.772 162.683 28.88 162.707 29H162.671C162.551 28.928 162.383 28.82 162.167 28.676C161.951 28.532 161.807 28.412 161.735 28.316C161.783 27.332 161.939 26.408 162.203 25.544C162.491 24.656 162.827 23.852 163.211 23.132C163.619 22.388 164.039 21.728 164.471 21.152C164.903 20.552 165.287 20.048 165.623 19.64C165.359 19.52 165.059 19.376 164.723 19.208C164.387 19.04 164.051 18.872 163.715 18.704C163.379 18.536 163.055 18.38 162.743 18.236C162.455 18.092 162.227 17.984 162.059 17.912V17.768C162.251 17.648 162.395 17.492 162.491 17.3C162.611 17.108 162.671 16.832 162.671 16.472V10.496C163.583 10.232 164.519 9.848 165.479 9.344C166.439 8.84 167.303 8.312 168.071 7.76C168.647 8.216 169.235 8.672 169.835 9.128C170.435 9.584 171.071 10.016 171.743 10.424C171.839 10.184 171.923 9.884 171.995 9.524C172.067 9.14 172.103 8.816 172.103 8.552L172.139 8.516C172.259 8.612 172.391 8.756 172.535 8.948C172.679 9.116 172.787 9.248 172.859 9.344C172.739 10.112 172.415 11.084 171.887 12.26C171.359 13.412 170.483 14.768 169.259 16.328L172.967 18.092V18.236Z" fill="white"/>
</svg>
