<svg xmlns="http://www.w3.org/2000/svg" xmlns:xlink="http://www.w3.org/1999/xlink" width="109" height="39" viewBox="0 0 109 39">
    <defs>
        <path id="a" d="M0 .47h108.397v38.504H0z"/>
        <path id="c" d="M0 40h109.097V0H0z"/>
    </defs>
    <g fill="none" fill-rule="evenodd">
        <path fill="#FEFEFE" d="M97.035 11.228c-.72 0-1.024.655-1.072 1.129h2.03c.01-.427-.18-1.129-.958-1.129zM51.66 13.76c0 .456.294.665.664.665a.957.957 0 0 0 .92-.636c.028-.086.028-.171.028-.257v-.634c-.825-.01-1.612.16-1.612.862zm22.45-2.484c-.825 0-1.157.806-1.157 1.573 0 .893.445 1.566 1.148 1.566.664 0 1.128-.645 1.128-1.584 0-.72-.322-1.555-1.119-1.555zm-7.838-.048c-.72 0-1.024.655-1.072 1.129h2.03c.01-.427-.18-1.129-.958-1.129zm-8.397.114c-.474 0-.91.341-1.034.854-.02.085-.039.19-.039.303v.75a1.066 1.066 0 0 0 1.063 1.09c.73 0 1.177-.579 1.177-1.517 0-.816-.39-1.48-1.167-1.48zm41.19 15.083h-5.98c.023.885.313 1.559.868 2.026.503.419 1.154.628 1.954.628.888 0 1.692-.14 2.418-.427l.314 1.385c-.846.372-1.85.552-3.01.552-1.387 0-2.48-.407-3.272-1.224-.793-.818-1.193-1.916-1.193-3.292 0-1.355.371-2.478 1.107-3.38.779-.958 1.824-1.437 3.138-1.437 1.296 0 2.272.479 2.934 1.437.528.765.793 1.707.793 2.826 0 .355-.025.656-.072.906zm-8.226-14.04v2.77h-1.166V8.42h1.166v2.74h.02a1.54 1.54 0 0 1 .578-.52 1.64 1.64 0 0 1 .807-.21c.787 0 1.612.522 1.612 2.002v2.722h-1.167v-2.599c0-.664-.247-1.176-.892-1.176-.455 0-.778.303-.91.655a1.034 1.034 0 0 0-.048.35zm-.302 10.825a3.585 3.585 0 0 0-.627-.05c-.701 0-1.241.264-1.624.792-.333.468-.498 1.05-.498 1.769v4.704h-1.993v-6.147c0-1.027-.018-1.968-.053-2.82h1.733l.075 1.717h.055c.207-.588.538-1.064.996-1.418a2.395 2.395 0 0 1 1.44-.479c.184 0 .351.01.496.034v1.898zM85.42 10.536h.655v-.863l1.148-.323v1.186h1.11v.872h-1.11v2.04c0 .569.152.853.597.853.21 0 .323-.01.456-.048l.019.882c-.171.067-.484.124-.844.124-.436 0-.788-.142-1.006-.38-.256-.265-.37-.692-.37-1.299v-2.172h-.655v-.872zm-2.058 18.73c-.828.908-1.922 1.362-3.284 1.362-1.319 0-2.371-.436-3.15-1.31-.78-.87-1.17-1.976-1.17-3.303 0-1.388.401-2.527 1.207-3.412.807-.888 1.89-1.325 3.255-1.325 1.321 0 2.378.432 3.177 1.31.76.843 1.143 1.941 1.143 3.281 0 1.382-.391 2.508-1.178 3.397zm-9.3-14.007c-1.3 0-2.315-.892-2.315-2.38 0-1.518.996-2.447 2.39-2.447 1.376 0 2.296.967 2.296 2.37 0 1.698-1.195 2.457-2.371 2.457zm1.124 7.692h-2.2v4.359c0 1.106.39 1.654 1.166 1.654.357 0 .65-.026.885-.086l.056 1.51c-.394.147-.909.221-1.55.221-.783 0-1.402-.237-1.843-.72-.447-.476-.667-1.284-.667-2.415v-4.523h-1.31v-1.493h1.31v-1.641l1.953-.59v2.231h2.2v1.493zm-7.025 6.57c-.815.726-1.942 1.087-3.39 1.087-1.34 0-2.412-.26-3.223-.773l.463-1.66a5.57 5.57 0 0 0 2.876.774c.753 0 1.336-.171 1.754-.507.416-.337.626-.789.626-1.36 0-.499-.173-.924-.515-1.27-.348-.344-.915-.661-1.716-.959-2.175-.81-3.265-1.997-3.265-3.558 0-1.022.38-1.86 1.15-2.511.77-.65 1.788-.977 3.056-.977 1.13 0 2.073.198 2.824.59L68.3 20.02c-.7-.38-1.498-.573-2.386-.573-.703 0-1.253.179-1.65.515a1.495 1.495 0 0 0-.498 1.129c0 .488.192.896.572 1.22.333.294.936.613 1.806.956 1.074.427 1.859.935 2.365 1.514.503.579.757 1.296.757 2.157 0 1.058-.37 1.921-1.103 2.582zM58.13 15.258c-.598 0-1.13-.227-1.461-.797h-.019l-.057.693h-.996c.02-.314.039-.825.039-1.3V8.421h1.165v2.75h.02c.284-.445.787-.74 1.48-.74 1.128 0 1.934.94 1.925 2.343 0 1.66-1.053 2.485-2.096 2.485zM56.762 29.45c-.743.784-1.662 1.178-2.764 1.178-1.187 0-2.04-.423-2.559-1.275v4.71h-1.993v-9.658c0-.959-.026-1.94-.073-2.947h1.748l.115 1.42h.034c.669-1.066 1.675-1.6 3.028-1.6 1.058 0 1.94.414 2.648 1.253.709.835 1.061 1.938 1.061 3.302 0 1.53-.414 2.73-1.245 3.617zm-8.944-14.295h1.166V8.422h-1.166v6.733zM46.91 29.45c-.74.784-1.664 1.178-2.764 1.178-1.19 0-2.042-.423-2.56-1.275v4.71h-1.992v-9.658c0-.959-.025-1.94-.076-2.947h1.753l.11 1.42h.035c.667-1.066 1.675-1.6 3.03-1.6 1.058 0 1.937.414 2.65 1.253.704.835 1.06 1.938 1.06 3.302 0 1.53-.415 2.73-1.246 3.617zm-7.803-15.567c0-1.156 1.034-1.754 2.742-1.744v-.076c0-.303-.124-.806-.94-.806-.456 0-.929.142-1.243.341l-.227-.759c.34-.208.939-.407 1.67-.407 1.478 0 1.906.939 1.906 1.953v1.66c0 .417.019.825.076 1.11h-1.054l-.085-.513h-.028c-.275.361-.759.617-1.366.617-.93 0-1.451-.673-1.451-1.376zm-2.401 1.272h-1.148l-1.717-4.619h1.262l.748 2.342c.133.408.228.778.313 1.158h.03c.084-.38.189-.741.312-1.158l.74-2.342h1.224l-1.764 4.619zm-.453 15.27l-1.162-3.65H31.05l-1.108 3.65h-2.065l4.001-12.435h2.475l4.024 12.435h-2.123zm-14.082-.467a2.043 2.043 0 0 1-2.044 2.039h-8.76a2.044 2.044 0 0 1-2.046-2.04V10.495c0-1.127.919-2.042 2.046-2.042h8.76c1.126 0 2.044.915 2.044 2.042v19.464zm7.77-21.196h1.488l2.077 6.393h-1.261l-.578-1.812h-2.021l-.55 1.812H27.89l2.05-6.393zm14.879 6.393h1.165v-4.619H44.82v4.619zm.587-6.545c.399 0 .645.276.655.636 0 .341-.256.626-.665.626a.618.618 0 0 1-.644-.626c0-.36.265-.636.654-.636zm6.898 2.647c-.455 0-.929.142-1.242.341l-.228-.759c.341-.208.939-.407 1.669-.407 1.48 0 1.907.939 1.907 1.953v1.66c0 .417.019.825.075 1.11h-1.053l-.084-.513h-.029c-.275.361-.759.617-1.366.617-.93 0-1.451-.673-1.451-1.376 0-1.156 1.033-1.754 2.741-1.744v-.076c0-.303-.124-.806-.939-.806zm9.252 3.897h1.166V8.421h-1.166v6.733zm4.782-4.722c1.498 0 1.992 1.233 1.992 2.248 0 .218-.019.389-.038.492H65.2c.029.835.674 1.195 1.423 1.195.54 0 .92-.085 1.28-.209l.171.798c-.398.17-.948.293-1.612.293-1.498 0-2.38-.92-2.38-2.332 0-1.281.777-2.485 2.257-2.485zm12.25.104l.057.692h.03c.207-.36.71-.796 1.478-.796.807 0 1.642.52 1.642 1.981v2.742h-1.167v-2.609c0-.663-.247-1.166-.882-1.166-.465 0-.787.332-.911.683a1.073 1.073 0 0 0-.057.37v2.722h-1.167V11.91c0-.53-.019-.976-.037-1.375h1.015zm18.513-.104c1.498 0 1.992 1.233 1.992 2.248 0 .218-.02.389-.038.492h-3.093c.029.835.674 1.195 1.423 1.195.54 0 .92-.085 1.28-.209l.171.798c-.398.17-.948.293-1.612.293-1.498 0-2.38-.92-2.38-2.332 0-1.281.777-2.485 2.257-2.485zm-66.128.455c-.124-.39-.228-.825-.323-1.195h-.02c-.094.37-.198.815-.302 1.195l-.493 1.574h1.64l-.502-1.574zm10.875 2.902c.027-.086.027-.171.027-.257v-.634c-.825-.01-1.612.16-1.612.862 0 .456.294.665.664.665a.959.959 0 0 0 .92-.636zm53.413 8.849c-.651 0-1.18.278-1.587.815-.332.43-.53.947-.59 1.547h4.151c.01-.589-.116-1.097-.386-1.53-.346-.551-.876-.832-1.588-.832zM33.06 19.652h-.035a99.67 99.67 0 0 1-.593 2.343L31.4 25.242h3.339l-1.048-3.247c-.113-.334-.324-1.116-.63-2.343zm20.593 3.207a2.06 2.06 0 0 0-1.337.488 2.3 2.3 0 0 0-.786 1.287c-.062.247-.09.449-.09.609v1.493c0 .653.196 1.204.598 1.653.4.445.92.671 1.557.671.754 0 1.337-.287 1.756-.867.419-.577.63-1.34.63-2.29 0-.871-.199-1.592-.591-2.156-.434-.587-1.013-.888-1.737-.888zm26.495-.124c-.797 0-1.407.354-1.823 1.066-.36.587-.537 1.302-.537 2.15 0 .824.176 1.528.537 2.116.427.71 1.03 1.065 1.809 1.065.757 0 1.356-.36 1.784-1.088.372-.595.557-1.308.557-2.128 0-.82-.178-1.528-.533-2.115-.424-.712-1.018-1.066-1.794-1.066zm-36.351.124c-.49 0-.934.162-1.336.488-.4.33-.66.758-.784 1.287-.06.247-.091.449-.091.609v1.493c0 .653.196 1.204.598 1.653.4.445.92.671 1.558.671.75 0 1.338-.287 1.755-.867.418-.577.626-1.34.626-2.29 0-.871-.195-1.592-.589-2.156-.433-.587-1.01-.888-1.737-.888zm-33.233 5.034h10.365V12.564H10.564v15.329zm5.181.904a1.057 1.057 0 1 0 0 2.114 1.057 1.057 0 0 0 0-2.114zM14.73 11.001h2.031c.133 0 .241-.11.241-.237a.242.242 0 0 0-.24-.243H14.73a.243.243 0 0 0-.24.243c0 .127.111.237.24.237z"/>
        <g>
            <mask id="b" fill="#fff">
                <use xlink:href="#a"/>
            </mask>
            <path fill="#FEFEFE" d="M5.196 1.813a3.853 3.853 0 0 0-3.85 3.847v28.13a3.85 3.85 0 0 0 3.85 3.84H103.2a3.85 3.85 0 0 0 3.851-3.84V5.66a3.854 3.854 0 0 0-3.851-3.847H5.196zM103.2 38.975H5.196C2.331 38.975 0 36.649 0 33.79V5.66A5.2 5.2 0 0 1 5.196.47H103.2a5.2 5.2 0 0 1 5.197 5.19v28.13c0 2.859-2.331 5.185-5.197 5.185z" mask="url(#b)"/>
        </g>
    </g>
</svg>
