<svg width="25" height="25" viewBox="0 0 25 25" fill="none" xmlns="http://www.w3.org/2000/svg">
<path d="M2.34251 19.5648L2.33325 19.5746L2.33172 19.5758L2.32571 19.5822C2.03377 19.8918 1.95393 20.3434 2.12221 20.7331C2.29051 21.1229 2.67559 21.375 3.10025 21.375C5.50225 21.375 7.40133 20.3861 8.5554 19.5791C9.67931 19.9268 10.8905 20.125 12.1627 20.125C17.7297 20.125 22.2877 16.4553 22.2877 11.875C22.2877 7.29468 17.7297 3.625 12.1627 3.625C6.59579 3.625 2.03775 7.29468 2.03775 11.875C2.03775 13.7449 2.80904 15.4559 4.08439 16.8366C3.79854 17.5641 3.37339 18.2368 3.01082 18.7361C2.8239 18.9936 2.65444 19.2038 2.53072 19.3504C2.46887 19.4237 2.41855 19.481 2.38331 19.5202C2.36568 19.5398 2.35194 19.5548 2.34251 19.5648ZM8.95041 18.1308L8.95039 18.1308L8.35664 17.9433L8.29745 17.9246L8.24679 17.9605L7.73898 18.3198L7.73891 18.3199C6.9033 18.9121 5.64325 19.5942 4.08475 19.8097C4.54249 19.2042 5.13136 18.31 5.51404 17.2942C5.51406 17.2942 5.51408 17.2941 5.5141 17.2941L5.79133 16.5639L5.81904 16.4909L5.76562 16.434L5.23046 15.8637L5.23019 15.8634C4.12036 14.6883 3.53775 13.3079 3.53775 11.875C3.53775 8.18136 7.37782 5.125 12.1627 5.125C16.9477 5.125 20.7877 8.18136 20.7877 11.875C20.7877 15.5686 16.9477 18.625 12.1627 18.625C11.07 18.625 9.98894 18.459 8.95041 18.1308ZM13.1002 13H7.47525C7.23434 13 7.03775 13.1966 7.03775 13.4375V14.0625C7.03775 14.3034 7.23434 14.5 7.47525 14.5H13.1002C13.3412 14.5 13.5377 14.3034 13.5377 14.0625V13.4375C13.5377 13.1966 13.3412 13 13.1002 13ZM16.8502 9.25H7.47525C7.23434 9.25 7.03775 9.44659 7.03775 9.6875V10.3125C7.03775 10.5534 7.23434 10.75 7.47525 10.75H16.8502C17.0912 10.75 17.2877 10.5534 17.2877 10.3125V9.6875C17.2877 9.44659 17.0912 9.25 16.8502 9.25Z" fill="#006ED2" stroke="#006ED2" stroke-width="0.25"/>
</svg>
