<svg width="157" height="25" viewBox="0 0 157 25" fill="none" xmlns="http://www.w3.org/2000/svg">
<g clip-path="url(#clip0_160_174)">
<path d="M14.1342 25H3.125L10.7348 12.5L3.15619 0H153.013L145.403 12.5L152.982 25H14.1342Z" fill="#006ED2"/>
<path d="M148.705 12.5L156.252 25H154.599L147.02 12.5L154.599 0H156.252L148.705 12.5Z" fill="#006ED2"/>
<path d="M7.54741 12.5L0 0H1.65294L9.23154 12.5L1.65294 25H0L7.54741 12.5Z" fill="#006ED2"/>
<path d="M29.114 7.808V10.664H28.876C28.624 10.216 28.4187 9.88467 28.26 9.67C28.1013 9.45533 27.798 9.152 27.35 8.76C26.902 8.35867 26.3233 8.158 25.614 8.158C24.6433 8.158 23.878 8.578 23.318 9.418C22.758 10.258 22.478 11.4013 22.478 12.848C22.478 14.332 22.758 15.522 23.318 16.418C23.878 17.3047 24.6247 17.748 25.558 17.748C26.3607 17.748 26.9953 17.5287 27.462 17.09C27.9287 16.6513 28.246 16.292 28.414 16.012C28.5913 15.732 28.7967 15.3353 29.03 14.822L29.268 14.836V18.126H29.016C28.932 17.7993 28.8527 17.58 28.778 17.468C28.7033 17.356 28.5913 17.3 28.442 17.3C28.3487 17.3 28.176 17.3607 27.924 17.482C27.4667 17.7247 27.0233 17.902 26.594 18.014C26.1647 18.126 25.712 18.182 25.236 18.182C23.808 18.182 22.6647 17.7107 21.806 16.768C20.9473 15.8253 20.518 14.57 20.518 13.002C20.518 11.4247 20.9613 10.1553 21.848 9.194C22.7347 8.23267 23.9107 7.752 25.376 7.752C26.2253 7.752 26.9347 7.87333 27.504 8.116C28.0733 8.34933 28.3953 8.466 28.47 8.466C28.582 8.466 28.6613 8.424 28.708 8.34C28.764 8.24667 28.8107 8.06933 28.848 7.808H29.114ZM29.9284 17.664C30.1991 17.6173 30.3997 17.566 30.5304 17.51C30.6704 17.454 30.8057 17.37 30.9364 17.258C31.0671 17.146 31.1651 17.0527 31.2304 16.978C31.2957 16.894 31.3844 16.7727 31.4964 16.614C31.6084 16.4553 31.7297 16.25 31.8604 15.998C32.0004 15.7367 32.1264 15.4707 32.2384 15.2L34.3804 9.894L34.4644 9.6C34.4644 9.50667 34.4084 9.404 34.2964 9.292L33.9324 8.928C34.3617 8.72267 34.6604 8.54533 34.8284 8.396C34.9964 8.24667 35.2111 7.96667 35.4724 7.556H35.6264L39.4764 16.614C39.6444 17.0153 39.8217 17.2907 40.0084 17.44C40.1951 17.58 40.4051 17.65 40.6384 17.65L41.0024 17.664V18H36.6764V17.664H37.0544C37.5024 17.664 37.7264 17.524 37.7264 17.244L37.6844 17.062L37.5724 16.81L36.8584 15.116C36.8117 14.9947 36.6857 14.934 36.4804 14.934H33.0504C32.9384 14.934 32.8497 15.0087 32.7844 15.158L32.5744 15.69C32.4157 16.0633 32.3364 16.3853 32.3364 16.656C32.3364 17.328 32.7471 17.664 33.5684 17.664V18H29.9284V17.664ZM33.2744 14.514H36.3544C36.4291 14.514 36.4757 14.5093 36.4944 14.5C36.5131 14.4907 36.5271 14.4813 36.5364 14.472L36.4804 14.29L34.8844 10.37C34.8751 10.3327 34.8564 10.3 34.8284 10.272C34.8097 10.244 34.7957 10.2253 34.7864 10.216C34.7677 10.244 34.7444 10.2767 34.7164 10.314C34.6884 10.3513 34.6697 10.3887 34.6604 10.426L33.1204 14.262L33.0784 14.43C33.0784 14.486 33.1437 14.514 33.2744 14.514ZM47.7648 7.808L47.8488 10.804H47.5828L47.4148 10.328C47.2562 9.84267 46.9855 9.36667 46.6028 8.9C46.2295 8.424 45.6975 8.186 45.0068 8.186C44.4935 8.186 44.0688 8.34 43.7328 8.648C43.4062 8.94667 43.2428 9.33867 43.2428 9.824C43.2428 10.328 43.3548 10.6967 43.5788 10.93C43.8122 11.154 44.0688 11.35 44.3488 11.518C44.6288 11.6767 44.9835 11.8493 45.4128 12.036L46.0008 12.288C46.4675 12.484 46.7662 12.6193 46.8968 12.694C47.0368 12.7593 47.3448 12.9693 47.8208 13.324C48.3062 13.6693 48.5488 14.2947 48.5488 15.2C48.5488 16.0587 48.2362 16.7727 47.6108 17.342C46.9948 17.902 46.2062 18.182 45.2448 18.182C44.8342 18.182 44.4282 18.1307 44.0268 18.028C43.6348 17.9253 43.3128 17.7993 43.0608 17.65C42.8088 17.5007 42.6455 17.426 42.5708 17.426C42.4588 17.426 42.3702 17.4727 42.3048 17.566C42.2395 17.65 42.1742 17.8227 42.1088 18.084H41.8568V14.78H42.1508C42.8602 16.7587 43.8402 17.748 45.0908 17.748C45.6135 17.748 46.0428 17.5753 46.3788 17.23C46.7242 16.8753 46.8968 16.4273 46.8968 15.886C46.8968 15.3167 46.7522 14.9153 46.4628 14.682C46.1735 14.4393 45.8935 14.2527 45.6228 14.122L45.1888 13.912C45.0488 13.8373 44.9322 13.7813 44.8388 13.744C44.7548 13.7067 44.6942 13.6833 44.6568 13.674L44.1388 13.45C43.3082 13.086 42.7062 12.68 42.3328 12.232C41.9688 11.7747 41.7868 11.224 41.7868 10.58C41.7868 9.74933 42.0808 9.07267 42.6688 8.55C43.2568 8.02733 44.0035 7.766 44.9088 7.766C45.4688 7.766 46.0055 7.88267 46.5188 8.116L46.8688 8.27C47.0368 8.354 47.1488 8.396 47.2048 8.396C47.2888 8.396 47.3588 8.312 47.4148 8.144L47.4988 7.808H47.7648ZM49.9949 17.664H50.3449C50.5689 17.664 50.7322 17.6127 50.8349 17.51C50.9469 17.4073 51.0029 17.1833 51.0029 16.838L51.0169 16.544V9.068C51.0169 8.72267 50.9656 8.49867 50.8629 8.396C50.7602 8.29333 50.6016 8.242 50.3869 8.242H49.9949V7.906H53.8449V8.242H53.4389C53.2242 8.242 53.0702 8.30267 52.9769 8.424C52.8836 8.54533 52.8369 8.76 52.8369 9.068V16.838V17.146C52.8556 17.3047 52.9116 17.4307 53.0049 17.524C53.0982 17.6173 53.2616 17.664 53.4949 17.664H53.8589V18H49.9949V17.664ZM54.6255 17.664C54.8682 17.5893 55.0502 17.524 55.1715 17.468C55.2928 17.4027 55.4188 17.2907 55.5495 17.132C55.6802 16.9733 55.7735 16.7633 55.8295 16.502C55.8855 16.2313 55.9135 15.8253 55.9135 15.284V9.516C55.9135 9.19867 55.8295 8.90933 55.6615 8.648C55.4935 8.38667 55.3022 8.256 55.0875 8.256L54.7375 8.242V7.906H57.3695L63.3055 15.396L63.5015 15.62L63.5155 15.368V10.678C63.5155 10.118 63.4968 9.73067 63.4595 9.516C63.4222 9.292 63.3288 9.08667 63.1795 8.9C63.0488 8.704 62.8715 8.55467 62.6475 8.452C62.4235 8.34933 62.1295 8.27933 61.7655 8.242V7.906H65.3075V8.256C64.8222 8.34 64.4862 8.53133 64.2995 8.83C64.1222 9.11933 64.0335 9.614 64.0335 10.314V18.056H63.0535L56.6415 9.908C56.6042 9.852 56.5668 9.81 56.5295 9.782C56.5015 9.74467 56.4828 9.72133 56.4735 9.712L56.4455 10.006V15.116V15.9C56.4455 16.4227 56.5248 16.782 56.6835 16.978C56.8515 17.1647 57.0195 17.3093 57.1875 17.412C57.3648 17.5147 57.5048 17.5847 57.6075 17.622C57.7102 17.65 57.8595 17.664 58.0555 17.664V18H54.6255V17.664ZM71.3278 7.738C72.7838 7.738 73.9365 8.20933 74.7858 9.152C75.6445 10.0853 76.0738 11.3547 76.0738 12.96C76.0738 14.556 75.6398 15.8253 74.7718 16.768C73.9038 17.7107 72.7372 18.182 71.2718 18.182C69.7692 18.182 68.5885 17.7247 67.7298 16.81C66.8712 15.8953 66.4418 14.626 66.4418 13.002C66.4418 11.35 66.8712 10.062 67.7298 9.138C68.5978 8.20467 69.7972 7.738 71.3278 7.738ZM68.4298 12.778C68.4298 14.3647 68.6772 15.592 69.1718 16.46C69.6665 17.3187 70.3712 17.748 71.2858 17.748C72.1725 17.748 72.8585 17.328 73.3438 16.488C73.8292 15.648 74.0718 14.4627 74.0718 12.932C74.0718 11.3827 73.8992 10.314 73.5538 9.726C73.2178 9.138 72.8492 8.72733 72.4478 8.494C72.0465 8.26067 71.6312 8.144 71.2018 8.144C70.7818 8.144 70.3805 8.256 69.9978 8.48C69.6152 8.704 69.3118 9.01667 69.0878 9.418C68.8732 9.81 68.7098 10.2813 68.5978 10.832C68.4858 11.3827 68.4298 12.0313 68.4298 12.778ZM82.5664 7.752L82.7484 7.71L82.9304 7.808C83.0144 7.85467 83.1031 7.88267 83.1964 7.892C83.2991 7.90133 83.5231 7.906 83.8684 7.906H89.1604C89.5244 7.906 89.7718 7.89667 89.9024 7.878C90.0331 7.85933 90.1684 7.808 90.3084 7.724L90.4484 7.766L91.0924 10.454L90.8124 10.482C90.5698 9.99667 90.3131 9.614 90.0424 9.334C89.7811 9.04467 89.4824 8.81133 89.1464 8.634C88.8198 8.44733 88.5258 8.354 88.2644 8.354H87.7604L87.4244 8.34L87.4104 8.718V16.838C87.4104 17.0807 87.4151 17.2347 87.4244 17.3C87.4338 17.3653 87.4804 17.4447 87.5644 17.538C87.6578 17.622 87.8211 17.664 88.0544 17.664H88.4744V18H84.5124V17.664H84.8484C85.0818 17.664 85.2498 17.622 85.3524 17.538C85.4644 17.454 85.5298 17.3793 85.5484 17.314C85.5671 17.2393 85.5764 17.0807 85.5764 16.838V16.516V8.62L85.5624 8.326L85.2824 8.34H84.8064C84.6571 8.34 84.4798 8.37733 84.2744 8.452C84.0691 8.51733 83.8871 8.60133 83.7284 8.704C83.5791 8.79733 83.4484 8.886 83.3364 8.97C83.2244 9.054 83.1078 9.15667 82.9864 9.278C82.8744 9.39 82.7438 9.544 82.5944 9.74C82.4451 9.92667 82.2771 10.1693 82.0904 10.468L81.8244 10.426L82.5664 7.752ZM91.7488 17.664H92.0848C92.2995 17.664 92.4535 17.622 92.5468 17.538C92.6495 17.454 92.7101 17.3747 92.7288 17.3C92.7475 17.216 92.7568 17.062 92.7568 16.838V16.516V9.068V8.774C92.7568 8.634 92.7148 8.51267 92.6308 8.41C92.5188 8.298 92.3415 8.242 92.0988 8.242H91.7628V7.906H93.4708L94.3808 7.892L95.3048 7.836L96.1868 7.794C97.2975 7.794 98.1655 8.02267 98.7908 8.48C99.4161 8.93733 99.7288 9.572 99.7288 10.384C99.7288 11.2707 99.4675 11.8727 98.9448 12.19C98.4221 12.5073 98.0208 12.708 97.7408 12.792C97.4608 12.876 97.0781 12.9507 96.5928 13.016V13.1C97.0688 13.1 97.4048 13.1653 97.6008 13.296C97.8061 13.4173 98.0768 13.7393 98.4128 14.262L100.037 16.838C100.354 17.314 100.606 17.5707 100.793 17.608L100.975 17.636L101.059 17.65L101.283 17.664V18H98.5948L96.3548 14.234C96.1681 13.926 95.9815 13.702 95.7948 13.562C95.6081 13.422 95.3841 13.338 95.1228 13.31L94.7728 13.282H94.7028C94.6281 13.282 94.5908 13.3427 94.5908 13.464V16.838C94.5908 17.1927 94.6375 17.412 94.7308 17.496C94.8241 17.608 94.9781 17.664 95.1928 17.664H95.5988V18H91.7488V17.664ZM94.8848 12.82H95.2908C96.1215 12.82 96.7748 12.6147 97.2508 12.204C97.7268 11.7933 97.9648 11.2287 97.9648 10.51C97.9648 9.81 97.7455 9.25 97.3068 8.83C96.8775 8.40067 96.3081 8.186 95.5988 8.186C95.1508 8.186 94.8615 8.26067 94.7308 8.41C94.6748 8.45667 94.6375 8.522 94.6188 8.606C94.6001 8.69 94.5908 8.82533 94.5908 9.012V12.54C94.5908 12.652 94.6095 12.7267 94.6468 12.764C94.6841 12.8013 94.7635 12.82 94.8848 12.82ZM101.664 17.664H102.014C102.238 17.664 102.401 17.6127 102.504 17.51C102.616 17.4073 102.672 17.1833 102.672 16.838L102.686 16.544V9.068C102.686 8.72267 102.634 8.49867 102.532 8.396C102.429 8.29333 102.27 8.242 102.056 8.242H101.664V7.906H105.514V8.242H105.108C104.893 8.242 104.739 8.30267 104.646 8.424C104.552 8.54533 104.506 8.76 104.506 9.068V16.838V17.146C104.524 17.3047 104.58 17.4307 104.674 17.524C104.767 17.6173 104.93 17.664 105.164 17.664H105.528V18H101.664V17.664ZM115.52 7.808V10.664H115.282C115.03 10.216 114.825 9.88467 114.666 9.67C114.508 9.45533 114.204 9.152 113.756 8.76C113.308 8.35867 112.73 8.158 112.02 8.158C111.05 8.158 110.284 8.578 109.724 9.418C109.164 10.258 108.884 11.4013 108.884 12.848C108.884 14.332 109.164 15.522 109.724 16.418C110.284 17.3047 111.031 17.748 111.964 17.748C112.767 17.748 113.402 17.5287 113.868 17.09C114.335 16.6513 114.652 16.292 114.82 16.012C114.998 15.732 115.203 15.3353 115.436 14.822L115.674 14.836V18.126H115.422C115.338 17.7993 115.259 17.58 115.184 17.468C115.11 17.356 114.998 17.3 114.848 17.3C114.755 17.3 114.582 17.3607 114.33 17.482C113.873 17.7247 113.43 17.902 113 18.014C112.571 18.126 112.118 18.182 111.642 18.182C110.214 18.182 109.071 17.7107 108.212 16.768C107.354 15.8253 106.924 14.57 106.924 13.002C106.924 11.4247 107.368 10.1553 108.254 9.194C109.141 8.23267 110.317 7.752 111.782 7.752C112.632 7.752 113.341 7.87333 113.91 8.116C114.48 8.34933 114.802 8.466 114.876 8.466C114.988 8.466 115.068 8.424 115.114 8.34C115.17 8.24667 115.217 8.06933 115.254 7.808H115.52ZM117.119 17.664H117.483C117.903 17.664 118.113 17.4913 118.113 17.146V16.838L118.127 16.502V9.068L118.113 8.774C118.113 8.61533 118.066 8.48933 117.973 8.396C117.879 8.30267 117.716 8.256 117.483 8.256L117.119 8.242V7.906H120.899V8.242H120.535C120.32 8.242 120.171 8.30267 120.087 8.424C120.003 8.54533 119.961 8.76 119.961 9.068V12.666L119.975 12.918C120.04 12.862 120.091 12.8107 120.129 12.764L122.831 9.852C123.223 9.42267 123.419 9.09133 123.419 8.858C123.419 8.662 123.349 8.51267 123.209 8.41C123.078 8.298 122.877 8.242 122.607 8.242L122.635 7.906H125.953V8.242C125.561 8.242 125.243 8.32133 125.001 8.48C124.758 8.62933 124.515 8.81133 124.273 9.026C124.03 9.24067 123.769 9.49733 123.489 9.796L122.075 11.336L121.879 11.546L121.991 11.77L124.959 16.838L125.155 17.146C125.267 17.314 125.397 17.44 125.547 17.524C125.696 17.608 125.887 17.65 126.121 17.65L126.485 17.664V18H123.587L120.801 13.128C120.773 13.0533 120.749 13.0113 120.731 13.002C120.721 12.9927 120.712 12.9833 120.703 12.974L120.591 13.086L119.933 13.772V16.838C119.933 17.0527 119.942 17.202 119.961 17.286C119.979 17.37 120.017 17.44 120.073 17.496C120.147 17.608 120.287 17.664 120.493 17.664H120.871V18H117.119V17.664ZM133.474 7.808L133.558 10.804H133.292L133.124 10.328C132.965 9.84267 132.694 9.36667 132.312 8.9C131.938 8.424 131.406 8.186 130.716 8.186C130.202 8.186 129.778 8.34 129.442 8.648C129.115 8.94667 128.952 9.33867 128.952 9.824C128.952 10.328 129.064 10.6967 129.288 10.93C129.521 11.154 129.778 11.35 130.058 11.518C130.338 11.6767 130.692 11.8493 131.122 12.036L131.71 12.288C132.176 12.484 132.475 12.6193 132.606 12.694C132.746 12.7593 133.054 12.9693 133.53 13.324C134.015 13.6693 134.258 14.2947 134.258 15.2C134.258 16.0587 133.945 16.7727 133.32 17.342C132.704 17.902 131.915 18.182 130.954 18.182C130.543 18.182 130.137 18.1307 129.736 18.028C129.344 17.9253 129.022 17.7993 128.77 17.65C128.518 17.5007 128.354 17.426 128.28 17.426C128.168 17.426 128.079 17.4727 128.014 17.566C127.948 17.65 127.883 17.8227 127.818 18.084H127.566V14.78H127.86C128.569 16.7587 129.549 17.748 130.8 17.748C131.322 17.748 131.752 17.5753 132.088 17.23C132.433 16.8753 132.606 16.4273 132.606 15.886C132.606 15.3167 132.461 14.9153 132.172 14.682C131.882 14.4393 131.602 14.2527 131.332 14.122L130.898 13.912C130.758 13.8373 130.641 13.7813 130.548 13.744C130.464 13.7067 130.403 13.6833 130.366 13.674L129.848 13.45C129.017 13.086 128.415 12.68 128.042 12.232C127.678 11.7747 127.496 11.224 127.496 10.58C127.496 9.74933 127.79 9.07267 128.378 8.55C128.966 8.02733 129.712 7.766 130.618 7.766C131.178 7.766 131.714 7.88267 132.228 8.116L132.578 8.27C132.746 8.354 132.858 8.396 132.914 8.396C132.998 8.396 133.068 8.312 133.124 8.144L133.208 7.808H133.474Z" fill="white"/>
</g>
<defs>
<clipPath id="clip0_160_174">
<rect width="157" height="25" fill="white"/>
</clipPath>
</defs>
</svg>
