<svg xmlns="http://www.w3.org/2000/svg" xmlns:xlink="http://www.w3.org/1999/xlink" width="114" height="40" viewBox="0 0 114 40">
    <defs>
        <path id="a" d="M0 .507h113.94v38.815H0z"/>
        <path id="c" d="M0 39.493h113.94V.678H0z"/>
    </defs>
    <g fill="none" fill-rule="evenodd">
        <g transform="translate(0 .171)">
            <mask id="b" fill="#fff">
                <use xlink:href="#a"/>
            </mask>
            <path fill="#FEFEFE" d="M5.645 1.863c-2.377 0-4.312 1.967-4.312 4.384v27.334c0 2.418 1.935 4.385 4.312 4.385h102.65c2.378 0 4.31-1.967 4.31-4.385V6.247c0-2.417-1.932-4.384-4.31-4.384H5.646zm102.65 37.459H5.646C2.532 39.322 0 36.747 0 33.582V6.246C0 3.082 2.532.507 5.645.507h102.65c3.113 0 5.644 2.575 5.644 5.74v27.334c0 3.166-2.531 5.74-5.643 5.74z" mask="url(#b)"/>
        </g>
        <path fill="#FEFEFE" d="M36.77 10.648c-.27-.827-.404-1.274-.404-1.341h-.038c0 .062-.14.51-.418 1.341h.86zm1.094 1.36h-.758c0-.106-.072-.406-.214-.9h-1.094c-.148.486-.222.786-.222.9h-.712c0-.063.184-.576.553-1.54.367-.963.552-1.494.552-1.592h.894c0 .092.167.615.5 1.57.333.954.5 1.475.5 1.561zM40.913 12.007h-.585c0-.065-.217-.412-.65-1.041-.454-.662-.713-1.115-.776-1.359h-.037c.038.352.058.669.058.953 0 .396.011.879.033 1.447h-.581c.024-.497.035-1.042.035-1.638 0-.585-.011-1.082-.035-1.493h.702c0 .085.195.424.584 1.017.415.631.653 1.058.714 1.283h.036a9.19 9.19 0 0 1-.057-.963 27 27 0 0 0-.033-1.337h.592c-.023.398-.034.895-.034 1.493 0 .604.011 1.15.034 1.638M43.695 10.437c0-.308-.089-.567-.265-.778-.177-.21-.446-.316-.809-.316-.068 0-.16.006-.279.021.015.321.023.656.023 1.006 0 .383.008.763.024 1.14.102.02.206.03.308.03.34 0 .59-.106.753-.32.163-.214.245-.475.245-.783m.646-.103c0 .455-.144.852-.43 1.192-.288.34-.69.51-1.207.51-.234 0-.555-.01-.965-.029.02-.483.03-1.03.03-1.637 0-.584-.01-1.082-.03-1.494h.414c.068 0 .168-.002.303-.007.133-.005.221-.008.262-.008.57 0 .982.145 1.238.434.256.288.385.634.385 1.039M46.614 9.795c0-.319-.202-.479-.605-.479a2.05 2.05 0 0 0-.393.034c.017.248.026.572.026.971.087.004.16.005.22.005.501 0 .752-.177.752-.531m.887 2.213h-.7c-.183-.568-.323-.918-.421-1.052-.098-.132-.255-.2-.473-.2-.091 0-.179.001-.262.003 0 .413.007.828.021 1.249h-.657a39.984 39.984 0 0 0 0-3.132h.408c.048 0 .147-.002.297-.007s.29-.007.417-.007c.724 0 1.086.251 1.086.755 0 .4-.206.677-.619.835v.036c.159.044.299.17.419.379.119.207.28.587.484 1.14M50.238 10.454c0-.335-.084-.607-.253-.816a.775.775 0 0 0-.624-.312c-.23 0-.425.105-.586.315-.162.21-.242.475-.242.796 0 .333.085.605.254.814.17.209.378.314.624.314.23 0 .425-.106.587-.317.16-.21.24-.475.24-.794m.653-.07c0 .492-.148.9-.445 1.224a1.43 1.43 0 0 1-1.099.486c-.417 0-.765-.149-1.045-.446-.281-.297-.422-.676-.422-1.134 0-.492.149-.9.445-1.224a1.431 1.431 0 0 1 1.1-.486c.416 0 .765.148 1.045.445.281.296.421.675.421 1.135M52.229 12.007h-.67a40.89 40.89 0 0 0 0-3.131h.67a38.95 38.95 0 0 0 0 3.132M55.01 10.437c0-.308-.088-.567-.264-.778-.177-.21-.446-.316-.809-.316-.068 0-.161.006-.28.021.016.321.025.656.025 1.006 0 .383.008.763.023 1.14.102.02.205.03.307.03.34 0 .591-.106.754-.32.163-.214.244-.475.244-.783m.646-.103c0 .455-.144.852-.43 1.192-.287.34-.69.51-1.206.51-.234 0-.555-.01-.966-.029.021-.483.031-1.03.031-1.637 0-.584-.01-1.082-.03-1.494h.413c.068 0 .17-.002.304-.007.133-.005.221-.008.262-.008.57 0 .982.145 1.238.434.256.288.384.634.384 1.039M59.111 10.648c-.27-.827-.404-1.274-.404-1.341h-.038c0 .062-.14.51-.419 1.341h.861zm1.093 1.36h-.757c0-.106-.072-.406-.216-.9H58.14c-.148.486-.222.786-.222.9h-.712c0-.063.184-.576.552-1.54.368-.963.552-1.494.552-1.592h.894c0 .092.167.615.5 1.57.334.954.501 1.475.501 1.561zM62.352 9.828c0-.343-.224-.514-.672-.514a1.9 1.9 0 0 0-.354.036c.017.303.026.646.026 1.029.04.003.085.005.137.005.575 0 .863-.185.863-.556m.61-.132c0 .383-.14.667-.42.85-.28.182-.622.273-1.03.273a2.11 2.11 0 0 1-.158-.004c0 .3.009.699.026 1.192h-.664c.02-.463.03-1.008.03-1.638 0-.576-.01-1.075-.03-1.493h.41c.06 0 .172-.002.337-.008.165-.004.31-.006.43-.006.3 0 .553.069.76.206.207.139.31.348.31.628M65.189 9.828c0-.343-.224-.514-.672-.514-.112 0-.23.012-.355.036.018.303.026.646.026 1.029.04.003.086.005.138.005.575 0 .863-.185.863-.556m.61-.132c0 .383-.14.667-.42.85-.28.182-.623.273-1.03.273-.074 0-.127-.001-.158-.004 0 .3.009.699.026 1.192h-.665a38.5 38.5 0 0 0 .03-1.638c0-.576-.01-1.075-.03-1.493h.412c.058 0 .17-.002.336-.008.165-.004.308-.006.43-.006.3 0 .553.069.759.206.207.139.31.348.31.628M69.784 10.454c0-.335-.085-.607-.253-.816a.775.775 0 0 0-.624-.312c-.231 0-.426.105-.587.315-.161.21-.242.475-.242.796 0 .333.085.605.255.814.169.209.377.314.623.314.23 0 .425-.106.587-.317.16-.21.24-.475.24-.794m.654-.07c0 .492-.148.9-.445 1.224a1.431 1.431 0 0 1-1.1.486c-.416 0-.765-.149-1.045-.446-.281-.297-.421-.676-.421-1.134 0-.492.148-.9.445-1.224a1.43 1.43 0 0 1 1.099-.486c.416 0 .765.148 1.045.445.282.296.422.675.422 1.135M73.642 12.007h-.584c0-.065-.217-.412-.65-1.041-.455-.662-.713-1.115-.777-1.359h-.037c.04.352.06.669.06.953 0 .396.01.879.032 1.447h-.582a34.147 34.147 0 0 0 0-3.131h.703c0 .085.194.424.584 1.017.414.631.653 1.058.714 1.283h.036a9.19 9.19 0 0 1-.057-.963c0-.434-.011-.88-.033-1.337h.591c-.022.398-.033.895-.033 1.493 0 .604.011 1.15.033 1.638M45.742 22.04c0 1.554-.453 2.793-1.36 3.715-1.03 1.098-2.37 1.647-4.02 1.647-1.578 0-2.921-.556-4.026-1.671-1.106-1.113-1.658-2.494-1.658-4.142 0-1.647.552-3.028 1.658-4.141 1.105-1.114 2.448-1.67 4.027-1.67.784 0 1.533.154 2.247.465.712.31 1.284.726 1.71 1.243l-.962.98c-.723-.88-1.722-1.322-2.995-1.322-1.152 0-2.147.412-2.988 1.236-.84.824-1.26 1.894-1.26 3.21 0 1.315.42 2.385 1.26 3.209.84.824 1.836 1.236 2.988 1.236 1.223 0 2.241-.415 3.057-1.244.53-.539.835-1.29.916-2.254h-3.973v-1.336h5.303c.05.29.076.57.076.84M48.455 25.343c.484.502 1.057.753 1.72.753.661 0 1.235-.251 1.719-.753.484-.503.726-1.169.726-1.997 0-.83-.242-1.494-.726-1.998-.484-.502-1.058-.753-1.72-.753-.662 0-1.235.25-1.719.753-.485.504-.726 1.169-.726 1.998 0 .828.241 1.494.726 1.997m-1.047-4.896c.724-.772 1.645-1.158 2.766-1.158s2.043.386 2.767 1.158c.723.772 1.084 1.738 1.084 2.899 0 1.16-.361 2.126-1.084 2.898-.724.772-1.646 1.158-2.767 1.158-1.12 0-2.042-.386-2.766-1.158-.723-.772-1.085-1.737-1.085-2.898 0-1.16.362-2.127 1.085-2.899M56.632 25.343c.484.502 1.056.753 1.719.753.662 0 1.235-.251 1.72-.753.483-.503.725-1.169.725-1.997 0-.83-.242-1.494-.726-1.998-.484-.502-1.057-.753-1.72-.753-.662 0-1.234.25-1.718.753-.485.504-.726 1.169-.726 1.998 0 .828.24 1.494.726 1.997m-1.047-4.896c.723-.772 1.645-1.158 2.766-1.158 1.12 0 2.043.386 2.767 1.158.722.772 1.084 1.738 1.084 2.899 0 1.16-.362 2.126-1.084 2.898-.724.772-1.646 1.158-2.767 1.158s-2.043-.386-2.766-1.158c-.723-.772-1.085-1.737-1.085-2.898 0-1.16.362-2.127 1.085-2.899M66.466 26.097c.662 0 1.226-.25 1.689-.747.464-.497.695-1.165.695-2.005 0-.839-.231-1.507-.695-2.004-.463-.498-1.027-.746-1.689-.746-.652 0-1.212.25-1.68.753-.47.503-.704 1.169-.704 1.997 0 .83.234 1.495.704 1.998.468.502 1.028.754 1.68.754m-.106 4.662c-.887 0-1.61-.225-2.171-.676-.56-.45-.963-.967-1.207-1.546l1.284-.544c.142.414.405.761.787 1.04.381.28.817.42 1.307.42.774 0 1.382-.235 1.826-.707.443-.471.664-1.11.664-1.92v-.73h-.061c-.245.374-.59.685-1.039.933a3.068 3.068 0 0 1-1.513.373c-.968 0-1.803-.388-2.507-1.166-.702-.777-1.054-1.74-1.054-2.89 0-1.15.352-2.114 1.054-2.891.704-.777 1.539-1.166 2.507-1.166.56 0 1.065.125 1.513.373.448.249.794.56 1.039.933h.061v-1.058h1.346v7.227c0 1.306-.373 2.298-1.116 2.977-.744.678-1.651 1.018-2.72 1.018"/>
        <mask id="d" fill="#fff">
            <use xlink:href="#c"/>
        </mask>
        <path fill="#FEFEFE" d="M71.525 27.153h1.406V16.025h-1.406zM79.594 22.429c-.03-.436-.228-.85-.589-1.244-.362-.393-.9-.59-1.613-.59-.519 0-.97.165-1.352.497-.382.332-.644.777-.787 1.337h4.34zm-2.018 4.973c-1.13 0-2.05-.383-2.758-1.15-.709-.766-1.063-1.736-1.063-2.906 0-1.11.344-2.062 1.032-2.86.687-.798 1.567-1.197 2.636-1.197 1.11 0 2 .368 2.667 1.104.667.735 1.001 1.72 1.001 2.953l-.015.264h-5.914c.04.767.292 1.373.756 1.818.464.446 1.006.669 1.628.669 1.008 0 1.691-.436 2.048-1.306l1.252.529c-.244.59-.647 1.085-1.207 1.484-.56.398-1.248.598-2.063.598zM86.624 21.279h2.353c.59 0 1.065-.203 1.421-.607.357-.403.536-.849.536-1.336 0-.487-.179-.932-.536-1.337-.356-.404-.83-.606-1.42-.606h-2.354v3.886zm0 5.874h-1.406V16.025h3.728c.928 0 1.73.314 2.408.94.677.628 1.016 1.418 1.016 2.37 0 .954-.339 1.744-1.016 2.37-.678.628-1.48.941-2.408.941h-2.322v4.507zM93.287 27.153h1.406V16.025h-1.406zM98.544 26.097c.58 0 1.108-.22 1.582-.661.474-.44.71-.961.71-1.562-.397-.332-.993-.497-1.788-.497-.683 0-1.197.15-1.544.45-.346.302-.519.653-.519 1.057 0 .373.157.668.474.887.315.217.677.326 1.085.326m-.23 1.305c-.794 0-1.459-.233-1.994-.7-.535-.466-.802-1.082-.802-1.849 0-.829.316-1.479.948-1.95.631-.471 1.41-.707 2.338-.707.825 0 1.503.155 2.032.466v-.218c0-.56-.188-1.008-.565-1.344-.377-.337-.84-.505-1.39-.505-.408 0-.778.098-1.109.295a1.518 1.518 0 0 0-.68.808l-1.284-.56c.173-.455.514-.877 1.024-1.266.509-.389 1.182-.583 2.018-.583.958 0 1.752.286 2.384.855.631.57.947 1.373.947 2.409v4.6h-1.345v-1.056h-.06c-.561.87-1.382 1.305-2.462 1.305M105.238 30.51h-1.452l1.743-3.839-3.087-7.134h1.528l2.231 5.472h.03l2.17-5.472h1.529zM8.453 21.4c0-3.554 0-7.108-.002-10.662-.001-.437.083-.835.386-1.165.119-.128.204-.162.349-.012 2.351 2.441 4.709 4.876 7.065 7.31 1.527 1.578 3.052 3.156 4.585 4.726.149.153.161.233.004.392A4598.21 4598.21 0 0 0 9.61 33.377c-.228.232-.388.207-.607.036-.4-.313-.553-.732-.553-1.232 0-2.105-.003-4.21-.004-6.315-.002-1.488 0-2.977 0-4.465h.006zM9.796 9.168c.286-.003.487.082.68.192 4.788 2.728 9.574 5.457 14.364 8.179.22.125.216.195.046.365-1.071 1.071-2.132 2.151-3.194 3.231-.114.117-.185.185-.338.025-3.808-3.95-7.623-7.893-11.435-11.84-.032-.032-.058-.07-.123-.152M10.867 33.286c3.475-3.571 6.952-7.14 10.418-10.72.215-.222.316-.192.508.012.88.932 1.774 1.852 2.672 2.767.158.162.17.227-.044.347-4.46 2.482-8.916 4.972-13.374 7.46-.074.042-.142.11-.18.134M30.716 21.5c-.015.4-.201.681-.482.892-.208.156-.438.284-.665.412-1.348.758-2.7 1.51-4.046 2.273-.182.103-.29.098-.44-.06a297.147 297.147 0 0 0-2.896-2.996c-.142-.145-.145-.224 0-.37a476.895 476.895 0 0 0 3.379-3.42c.132-.135.226-.15.39-.055 1.333.767 2.672 1.525 4.008 2.285.412.236.734.54.752 1.038" mask="url(#d)"/>
    </g>
</svg>
