<svg width="24" height="24" viewBox="0 0 24 24" fill="none" xmlns="http://www.w3.org/2000/svg">
<path d="M18.8 2H5.2C3.436 2 2 3.436 2 5.2V18.8C2 20.564 3.436 22 5.2 22H18.8C20.564 22 22 20.564 22 18.8V5.2C22 3.436 20.564 2 18.8 2ZM20.8 18.8C20.8 19.904 19.904 20.8 18.8 20.8H5.2C4.096 20.8 3.2 19.904 3.2 18.8V5.2C3.2 4.096 4.096 3.2 5.2 3.2H18.8C19.904 3.2 20.8 4.096 20.8 5.2V18.8Z" fill="#333333"/>
<path fill-rule="evenodd" clip-rule="evenodd" d="M13.9781 17.4H10.0321C9.95206 17.4 9.88806 17.336 9.88806 17.256V10.542C9.88806 10.442 9.80806 10.362 9.70806 10.362H6.20406C6.12406 10.362 6.06006 10.298 6.06006 10.218V6.74398C6.06006 6.66398 6.12406 6.59998 6.20406 6.59998H17.7961C17.8761 6.59998 17.9401 6.66398 17.9401 6.74398V10.218C17.9401 10.298 17.8761 10.362 17.7961 10.362H14.2661C14.1861 10.362 14.1221 10.426 14.1221 10.506V17.256C14.1221 17.336 14.0581 17.4 13.9781 17.4Z" fill="#333333"/>
</svg>
