<svg width="998" height="386" viewBox="0 0 998 386" fill="none" xmlns="http://www.w3.org/2000/svg">
<path d="M212.119 82.9395H150.522V80.957C150.428 73.3105 148.587 67.4105 145 63.2568C139.997 57.3096 132.681 54.3359 123.052 54.3359C108.042 54.3359 95.4867 62.6432 85.3857 79.2578C76.2288 94.4564 71.6504 110.929 71.6504 128.677C71.6504 139.344 74.5768 147.557 80.4297 153.315C86.4714 159.263 94.0706 162.236 103.228 162.236C113.989 162.236 123.241 158.271 130.981 150.342C135.796 145.433 139.336 139.438 141.602 132.358H205.605C198.337 156.242 185.734 175.169 167.798 189.141C150.145 202.923 128.102 209.814 101.67 209.814C76.4648 209.814 56.1686 203.442 40.7812 190.698C22.4674 175.594 13.3105 154.543 13.3105 127.544C13.3105 103.66 19.2106 81.429 31.0107 60.8496C42.5277 40.6478 57.7262 26.0156 76.6064 16.9531C90.7666 10.1562 106.579 6.75781 124.043 6.75781C140.658 6.75781 155.62 9.68424 168.931 15.5371C196.496 27.526 210.892 49.9935 212.119 82.9395ZM287.451 110.552H233.359C236.475 94.5036 242.941 82.8451 252.759 75.5762C265.409 66.1361 284.902 61.416 311.24 61.416C356.364 61.416 378.926 74.1602 378.926 99.6484C378.926 104.746 377.746 112.817 375.386 123.862L365.049 172.715C362.972 182.438 361.934 189.329 361.934 193.389C361.934 197.448 362.689 201.318 364.199 205H306.992V202.31C306.992 198.817 307.134 195.465 307.417 192.256C294.484 203.962 280.182 209.814 264.512 209.814C250.918 209.814 239.684 206.369 230.811 199.478C220.71 191.737 215.659 180.928 215.659 167.051C215.659 152.891 220.757 142.035 230.952 134.482C235.955 130.612 241.761 127.686 248.369 125.703C254.128 123.815 263.285 122.021 275.84 120.322C300.856 116.829 315.158 114.517 318.745 113.384C324.315 111.685 327.1 108.664 327.1 104.321C327.1 100.545 325.117 97.5244 321.152 95.2588C318.132 93.4652 314.497 92.5684 310.249 92.5684C299.204 92.5684 291.605 98.5628 287.451 110.552ZM317.329 140.146L316.196 140.571C311.476 142.176 303.735 143.923 292.974 145.811C276.076 148.831 267.627 154.826 267.627 163.794C267.627 168.42 269.515 171.865 273.291 174.131C276.501 176.019 280.229 176.963 284.478 176.963C289.67 176.963 295.05 175.264 300.62 171.865C307.606 167.523 312.373 161.198 314.922 152.891C315.771 150.247 316.574 145.999 317.329 140.146ZM544.316 106.445H493.057C493.434 104.746 493.623 103.472 493.623 102.622C493.623 99.5068 492.537 97.0052 490.366 95.1172C487.44 92.474 483.145 91.1523 477.48 91.1523C471.816 91.1523 467.096 92.3324 463.32 94.6924C460.299 96.5804 458.789 99.1292 458.789 102.339C458.789 107.059 463.462 110.033 472.808 111.26C497.729 114.564 514.769 119.331 523.926 125.562C533.649 132.075 538.511 141.94 538.511 155.156C538.511 165.257 535.443 174.508 529.307 182.91C516.279 200.846 493.104 209.814 459.78 209.814C432.121 209.814 412.249 204.764 400.166 194.663C394.785 190.226 391.245 183.949 389.546 175.83C389.074 173.376 388.838 170.921 388.838 168.467C388.838 165.446 389.357 161.34 390.396 156.147H444.346C443.402 158.602 442.93 160.49 442.93 161.812C442.93 166.909 445.431 170.78 450.435 173.423C453.739 175.216 458.223 176.113 463.887 176.113C469.74 176.113 474.365 175.028 477.764 172.856C481.257 170.591 483.003 167.759 483.003 164.36C483.003 159.357 477.622 155.817 466.86 153.74C450.529 150.625 440.145 148.548 435.708 147.51C422.775 144.206 413.901 139.391 409.087 133.066C404.272 126.647 401.865 119.095 401.865 110.41C401.865 97.7604 406.774 87.2819 416.592 78.9746C430.752 67.2689 451.756 61.416 479.604 61.416C523.029 61.416 544.741 74.3962 544.741 100.356C544.741 101.584 544.6 103.613 544.316 106.445ZM579.15 66.2305H634.8L605.205 205H549.556L579.15 66.2305ZM590.762 11.7139H646.411L638.623 48.6719H582.832L590.762 11.7139ZM666.377 66.2305H720.61L716.362 86.3379C722.593 80.013 727.738 75.4346 731.797 72.6025C742.653 65.1449 754.736 61.416 768.047 61.416C777.865 61.416 786.597 63.3512 794.243 67.2217C805.382 72.8857 810.952 82.373 810.952 95.6836C810.952 101.82 809.347 112.44 806.138 127.544L789.57 205H735.195L751.763 127.544C752.518 123.862 752.896 120.464 752.896 117.349C752.896 112.157 751.385 108.286 748.364 105.737C745.627 103.472 742.134 102.339 737.886 102.339C730.806 102.339 724.953 104.51 720.327 108.853C715.796 113.101 712.114 118.717 709.282 125.703C707.394 130.329 705.459 137.22 703.477 146.377L691.016 205H636.782L666.377 66.2305ZM916.162 61.416C930.794 61.416 944.388 64.2008 956.943 69.7705C967.988 74.6794 976.107 81.2402 981.299 89.4531C986.68 97.9492 989.37 108.994 989.37 122.588C989.37 141.374 984.744 158.083 975.493 172.715C966.147 187.536 953.828 197.826 938.535 203.584C927.49 207.738 914.227 209.814 898.745 209.814C879.959 209.814 864.525 206.369 852.441 199.478C834.883 189.471 826.104 173.848 826.104 152.607C826.104 131.839 832.004 112.959 843.804 95.9668C859.663 72.9329 883.783 61.416 916.162 61.416ZM914.604 98.7988C905.92 98.7988 898.84 103.519 893.364 112.959C885.623 126.081 881.753 139.344 881.753 152.749C881.753 158.696 883.452 163.511 886.851 167.192C890.532 171.157 895.252 173.14 901.011 173.14C906.108 173.14 911.064 171.204 915.879 167.334C921.354 162.992 926.121 155.487 930.181 144.819C933.485 136.04 935.137 127.733 935.137 119.897C935.137 114.139 933.39 109.277 929.897 105.312C926.027 100.97 920.929 98.7988 914.604 98.7988Z" fill="black"/>
<path d="M515.445 279.299V373H477.408V279.299H440.855V246.364H551.534V279.299H515.445ZM584.562 281.804V294.606C591.55 284.711 600.549 279.763 611.559 279.763C614.342 279.763 617.589 280.227 621.3 281.154V309.914C617.898 309.11 614.898 308.708 612.301 308.708C602.59 308.708 595.663 311.893 591.52 318.264C588.984 322.222 587.716 327.757 587.716 334.87V373H553.204V281.804H584.562ZM668.614 281.804V373H634.103V281.804H668.614ZM668.614 246.364V270.949H634.103V246.364H668.614ZM749.142 335.334L782.54 335.983C782.231 346.374 778.582 355.064 771.593 362.053C766.954 366.568 761.14 370.093 754.151 372.629C748.09 374.794 741.751 375.876 735.133 375.876C719.176 375.876 706.373 370.279 696.725 359.084C688.87 350.116 684.942 339.54 684.942 327.355C684.942 316.965 687.849 307.626 693.663 299.338C698.611 292.349 705.105 287.061 713.146 283.474C720.011 280.443 727.711 278.928 736.246 278.928C752.018 278.928 764.233 283.814 772.892 293.586C778.025 299.338 781.241 306.698 782.54 315.666L749.142 316.315C747.595 307.409 743.019 302.956 735.411 302.956C730.154 302.956 726.257 305.214 723.722 309.729C721.124 314.367 719.825 320.397 719.825 327.819C719.825 334.128 720.846 339.416 722.887 343.684C725.546 349.064 729.814 351.755 735.689 351.755C741.008 351.755 744.843 349.157 747.193 343.962C748.183 341.735 748.832 338.859 749.142 335.334ZM833.937 348.601V373H799.425V246.364H833.937V308.801L856.202 281.804H897.301L863.346 317.429L900.641 373H859.356L840.616 341.364L833.937 348.601ZM900.641 343.312H933.761C934.441 351.786 939.358 356.022 948.512 356.022C952.099 356.022 954.82 355.157 956.676 353.425C958.284 351.94 959.088 350.085 959.088 347.858C959.088 344.828 957.449 342.725 954.171 341.55C952.501 340.993 944.43 339.292 929.957 336.447C920.556 334.592 913.66 331.314 909.269 326.613C904.754 321.789 902.496 316.037 902.496 309.357C902.496 300.266 906.238 293.091 913.722 287.834C922.071 281.896 933.328 278.928 947.491 278.928C958.067 278.928 966.85 280.474 973.839 283.566C981.261 286.844 986.178 291.607 988.59 297.854C989.518 300.266 990.26 303.822 990.816 308.522H958.531C958.036 305.739 957.263 303.76 956.212 302.585C954.295 300.358 951.109 299.245 946.656 299.245C943.44 299.245 940.812 299.864 938.771 301.101C936.915 302.276 935.987 303.853 935.987 305.832C935.987 308.306 937.503 310.131 940.533 311.306C942.451 312.11 945.636 312.79 950.089 313.347C959.614 314.707 966.231 315.852 969.942 316.779C978.478 319.006 984.755 323.026 988.775 328.84C992.053 333.54 993.692 338.859 993.692 344.797C993.692 354.136 989.92 361.434 982.374 366.691C973.715 372.814 962.088 375.876 947.491 375.876C935.183 375.876 925.04 373.711 917.062 369.382C908.774 364.929 903.671 358.991 901.754 351.569C901.259 349.466 900.888 346.714 900.641 343.312Z" fill="#C8102E"/>
</svg>
