<svg width="448" height="150" viewBox="0 0 448 150" fill="none" xmlns="http://www.w3.org/2000/svg">
<path d="M95.0879 37.2832H67.4756V36.3945C67.4333 32.9668 66.6081 30.3219 65 28.46C62.7572 25.7939 59.4775 24.4609 55.1611 24.4609C48.4326 24.4609 42.8044 28.1849 38.2764 35.6328C34.1715 42.446 32.1191 49.8304 32.1191 57.7861C32.1191 62.568 33.431 66.2497 36.0547 68.8311C38.763 71.4971 42.1696 72.8301 46.2744 72.8301C51.0986 72.8301 55.2458 71.0527 58.7158 67.498C60.874 65.2975 62.4609 62.6104 63.4766 59.4365H92.168C88.9095 70.1429 83.2601 78.6276 75.2197 84.8906C67.3063 91.069 57.4251 94.1582 45.5762 94.1582C34.2773 94.1582 25.179 91.3018 18.2812 85.5889C10.0716 78.818 5.9668 69.3812 5.9668 57.2783C5.9668 46.5719 8.61165 36.6061 13.9014 27.3809C19.0641 18.3249 25.8773 11.7656 34.3408 7.70312C40.6885 4.65625 47.7767 3.13281 55.6055 3.13281C63.0534 3.13281 69.7607 4.44466 75.7275 7.06836C88.0843 12.4427 94.5378 22.5143 95.0879 37.2832ZM128.857 49.6611H104.609C106.006 42.4671 108.905 37.2409 113.306 33.9824C118.976 29.7507 127.715 27.6348 139.521 27.6348C159.749 27.6348 169.863 33.3477 169.863 44.7734C169.863 47.0586 169.334 50.6768 168.276 55.6279L163.643 77.5273C162.712 81.8861 162.246 84.9753 162.246 86.7949C162.246 88.6146 162.585 90.3496 163.262 92H137.617V90.7939C137.617 89.2282 137.681 87.7259 137.808 86.2871C132.01 91.5345 125.599 94.1582 118.574 94.1582C112.48 94.1582 107.445 92.6136 103.467 89.5244C98.9388 86.0544 96.6748 81.209 96.6748 74.9883C96.6748 68.6406 98.96 63.7741 103.53 60.3887C105.773 58.6536 108.376 57.3418 111.338 56.4531C113.919 55.6068 118.024 54.8027 123.652 54.041C134.867 52.4753 141.278 51.4385 142.886 50.9307C145.382 50.1689 146.631 48.8148 146.631 46.8682C146.631 45.1755 145.742 43.8213 143.965 42.8057C142.611 42.0016 140.981 41.5996 139.077 41.5996C134.126 41.5996 130.719 44.2868 128.857 49.6611ZM142.251 62.9277L141.743 63.1182C139.627 63.8376 136.157 64.6204 131.333 65.4668C123.758 66.821 119.971 69.5081 119.971 73.5283C119.971 75.6019 120.817 77.1465 122.51 78.1621C123.949 79.0085 125.62 79.4316 127.524 79.4316C129.852 79.4316 132.264 78.6699 134.761 77.1465C137.892 75.1999 140.029 72.3646 141.172 68.6406C141.553 67.4557 141.912 65.5514 142.251 62.9277ZM244.004 47.8203H221.025C221.195 47.0586 221.279 46.4873 221.279 46.1064C221.279 44.71 220.793 43.5885 219.819 42.7422C218.507 41.5573 216.582 40.9648 214.043 40.9648C211.504 40.9648 209.388 41.4938 207.695 42.5518C206.341 43.3981 205.664 44.5407 205.664 45.9795C205.664 48.0954 207.759 49.4284 211.948 49.9785C223.12 51.4596 230.758 53.5967 234.863 56.3896C239.222 59.3096 241.401 63.7318 241.401 69.6562C241.401 74.1842 240.026 78.3314 237.275 82.0977C231.436 90.138 221.047 94.1582 206.108 94.1582C193.709 94.1582 184.801 91.8942 179.385 87.3662C176.973 85.3773 175.386 82.5632 174.624 78.9238C174.412 77.8236 174.307 76.7233 174.307 75.623C174.307 74.2689 174.539 72.4281 175.005 70.1006H199.189C198.766 71.2008 198.555 72.0472 198.555 72.6396C198.555 74.9248 199.676 76.6598 201.919 77.8447C203.4 78.6488 205.41 79.0508 207.949 79.0508C210.573 79.0508 212.646 78.5641 214.17 77.5908C215.736 76.5752 216.519 75.3057 216.519 73.7822C216.519 71.5394 214.106 69.9525 209.282 69.0215C201.961 67.625 197.306 66.694 195.317 66.2285C189.52 64.7474 185.542 62.5892 183.384 59.7539C181.226 56.8763 180.146 53.4909 180.146 49.5977C180.146 43.9271 182.347 39.2298 186.748 35.5059C193.096 30.2585 202.511 27.6348 214.995 27.6348C234.461 27.6348 244.194 33.4535 244.194 45.0908C244.194 45.641 244.131 46.5508 244.004 47.8203ZM259.619 29.793H284.565L271.299 92H246.353L259.619 29.793ZM264.824 5.35449H289.771L286.279 21.9219H261.27L264.824 5.35449ZM298.721 29.793H323.032L321.128 38.8066C323.921 35.9714 326.227 33.9189 328.047 32.6494C332.913 29.3063 338.33 27.6348 344.297 27.6348C348.698 27.6348 352.612 28.5023 356.04 30.2373C361.034 32.7764 363.53 37.0293 363.53 42.9961C363.53 45.7467 362.811 50.5075 361.372 57.2783L353.945 92H329.57L336.997 57.2783C337.336 55.6279 337.505 54.1045 337.505 52.708C337.505 50.3805 336.828 48.6455 335.474 47.5029C334.246 46.4873 332.681 45.9795 330.776 45.9795C327.603 45.9795 324.979 46.9528 322.905 48.8994C320.874 50.8037 319.224 53.3216 317.954 56.4531C317.108 58.5267 316.24 61.6159 315.352 65.7207L309.766 92H285.454L298.721 29.793ZM410.693 27.6348C417.253 27.6348 423.346 28.8831 428.975 31.3799C433.926 33.5804 437.565 36.5215 439.893 40.2031C442.305 44.0117 443.511 48.9629 443.511 55.0566C443.511 63.4779 441.437 70.9681 437.29 77.5273C433.101 84.1712 427.578 88.7839 420.723 91.3652C415.771 93.2272 409.826 94.1582 402.886 94.1582C394.465 94.1582 387.546 92.6136 382.129 89.5244C374.258 85.0387 370.322 78.0352 370.322 68.5137C370.322 59.2038 372.967 50.7402 378.257 43.123C385.366 32.7975 396.178 27.6348 410.693 27.6348ZM409.995 44.3926C406.102 44.3926 402.928 46.5085 400.474 50.7402C397.004 56.6224 395.269 62.568 395.269 68.5771C395.269 71.2432 396.03 73.4014 397.554 75.0518C399.204 76.8291 401.32 77.7178 403.901 77.7178C406.187 77.7178 408.408 76.8503 410.566 75.1152C413.021 73.1686 415.158 69.8044 416.978 65.0225C418.459 61.0869 419.199 57.363 419.199 53.8506C419.199 51.2692 418.416 49.0898 416.851 47.3125C415.116 45.3659 412.83 44.3926 409.995 44.3926Z" fill="white"/>
<path d="M269.625 114.188L262.875 146H249.375L256.156 114.188H243.938L246.25 103.344H283.375L281.094 114.188H269.625ZM281.5 115.375H291.938L291.594 120.625C292.76 118.812 293.812 117.448 294.75 116.531C296.229 115.052 298.042 114.312 300.188 114.312C300.833 114.312 301.656 114.427 302.656 114.656L300.312 125.656C299.188 125.344 298.271 125.188 297.562 125.188C295.708 125.188 294.125 125.76 292.812 126.906C292 127.635 291.344 128.562 290.844 129.688C290.448 130.625 290.052 131.969 289.656 133.719L287.062 146H274.969L281.5 115.375ZM306.375 115.375H318.656L312.125 146H299.844L306.375 115.375ZM308.938 103.344H321.219L319.5 111.5H307.188L308.938 103.344ZM355.75 127.25H343.531C343.573 126.792 343.594 126.417 343.594 126.125C343.594 125.042 343.188 124.208 342.375 123.625C341.667 123.104 340.812 122.844 339.812 122.844C337.688 122.844 336.073 123.896 334.969 126C333.635 128.521 332.969 131.01 332.969 133.469C332.969 134.823 333.312 135.958 334 136.875C334.688 137.771 335.677 138.219 336.969 138.219C338.594 138.219 339.927 137.521 340.969 136.125C341.531 135.375 341.958 134.375 342.25 133.125H354.688C353.562 137.354 351.927 140.552 349.781 142.719C346.885 145.615 342.802 147.062 337.531 147.062C332.76 147.062 328.833 145.969 325.75 143.781C322.333 141.344 320.625 137.76 320.625 133.031C320.625 129.302 321.625 125.823 323.625 122.594C327.083 117.073 332.479 114.312 339.812 114.312C343.625 114.312 346.917 114.896 349.688 116.062C353.771 117.812 355.812 120.969 355.812 125.531C355.812 125.969 355.792 126.542 355.75 127.25ZM374.25 123.094L382.75 115.375H396.969L383.75 126.938L392.25 146H379.094L374.156 135.156L371.094 137.938L369.375 146H357.281L366.375 103.344H378.469L374.25 123.094ZM428.312 124.25H417C417.083 123.875 417.125 123.594 417.125 123.406C417.125 122.719 416.885 122.167 416.406 121.75C415.76 121.167 414.812 120.875 413.562 120.875C412.312 120.875 411.271 121.135 410.438 121.656C409.771 122.073 409.438 122.635 409.438 123.344C409.438 124.385 410.469 125.042 412.531 125.312C418.031 126.042 421.792 127.094 423.812 128.469C425.958 129.906 427.031 132.083 427.031 135C427.031 137.229 426.354 139.271 425 141.125C422.125 145.083 417.01 147.062 409.656 147.062C403.552 147.062 399.167 145.948 396.5 143.719C395.312 142.74 394.531 141.354 394.156 139.562C394.052 139.021 394 138.479 394 137.938C394 137.271 394.115 136.365 394.344 135.219H406.25C406.042 135.76 405.938 136.177 405.938 136.469C405.938 137.594 406.49 138.448 407.594 139.031C408.323 139.427 409.312 139.625 410.562 139.625C411.854 139.625 412.875 139.385 413.625 138.906C414.396 138.406 414.781 137.781 414.781 137.031C414.781 135.927 413.594 135.146 411.219 134.688C407.615 134 405.323 133.542 404.344 133.312C401.49 132.583 399.531 131.521 398.469 130.125C397.406 128.708 396.875 127.042 396.875 125.125C396.875 122.333 397.958 120.021 400.125 118.188C403.25 115.604 407.885 114.312 414.031 114.312C423.615 114.312 428.406 117.177 428.406 122.906C428.406 123.177 428.375 123.625 428.312 124.25Z" fill="white"/>
</svg>
